<?xml version="1.0" encoding="UTF-8"?>
<svg version="1.1" xmlns="http://www.w3.org/2000/svg" width="1024" height="1024">
<path d="M0 0 C8.66609656 -0.03152392 17.33216084 -0.05400625 25.998312 -0.06517315 C28.4377155 -0.06869473 30.87711755 -0.07358375 33.31651497 -0.08007336 C58.60280997 -0.14226047 83.84361035 0.69802121 109.10021591 1.87471867 C111.75378243 1.99794282 114.40750902 2.11664969 117.06133652 2.23409367 C136.53946068 3.11176957 155.68699166 5.07129954 174.9602623 8.00753117 C175.8893541 8.14304386 176.81844589 8.27855656 177.77569199 8.4181757 C197.9639697 11.38113188 197.9639697 11.38113188 204.7102623 19.96065617 C212.08029112 32.02907836 211.13473339 49.98794168 208.65948105 63.27706242 C207.20223289 68.9676572 204.51370415 73.39109389 200.9602623 78.00753117 C201.5171373 78.30143742 202.0740123 78.59534367 202.6477623 78.89815617 C214.23932126 85.71211313 219.52460009 97.41926483 222.9602623 110.00753117 C226.14039646 123.36992974 224.11112213 134.32543342 216.9602623 146.00753117 C212.30622287 152.90110836 207.57888522 158.93794765 200.9602623 164.00753117 C202.35825058 164.42712101 202.35825058 164.42712101 203.78448105 164.85518742 C219.32507562 169.67494668 234.45783992 176.30936032 242.6165123 191.19893742 C248.47056456 203.43458734 253.51114545 219.16745606 249.83916855 232.81612492 C245.4379505 243.78982859 235.42461109 253.67846465 224.9602623 259.00753117 C217.82632236 261.93220755 210.27467162 263.32323194 202.73858261 264.79732609 C200.69881414 265.19727588 198.66157212 265.60862382 196.6243248 266.02120304 C195.31456326 266.28164493 194.00467169 266.54143398 192.6946373 266.80049992 C191.52126816 267.03277287 190.34789902 267.26504581 189.13897324 267.50435734 C186.33806506 267.9477269 183.78698209 268.11009768 180.9602623 268.00753117 C181.44237167 268.97432804 181.92448105 269.94112492 182.4211998 270.93721867 C185.96280692 278.18544066 189.02466423 284.89264995 189.9602623 293.00753117 C190.80202011 292.97272648 191.64377792 292.93792179 192.51104355 292.90206242 C210.32567579 292.51358134 228.162629 294.75216055 245.5852623 298.38253117 C246.5018663 298.5671088 247.41847031 298.75168644 248.36285019 298.94185734 C257.70502274 301.02933417 266.09418038 305.25142285 271.9602623 313.00753117 C278.53458739 324.31596394 281.02741465 335.28600896 278.27666855 348.22237492 C274.71867513 358.7487206 268.28355027 366.11266145 258.5071373 371.31221867 C256.81015688 372.15029795 255.10694525 372.97587708 253.3977623 373.78878117 C251.13022084 374.92255189 249.07253104 376.17320829 246.9602623 377.57003117 C237.68376259 383.46660748 227.01558754 385.66831478 216.4602623 388.19503117 C214.2649318 388.72629152 212.07013513 389.25963492 209.87591171 389.79544926 C207.90696881 390.27540302 205.9365815 390.74941983 203.96612167 391.22310734 C201.06275477 391.87008858 201.06275477 391.87008858 198.9602623 393.00753117 C199.43077011 393.9137421 199.90127792 394.81995304 200.38604355 395.75362492 C206.38318082 407.42186334 212.77448725 420.12632135 209.0227623 433.63253117 C203.96899804 445.92186098 193.32681312 454.99771421 183.9602623 464.00753117 C184.87545504 465.0766887 185.79086393 466.14566121 186.70635605 467.21456242 C187.25533554 467.85603214 187.80431503 468.49750187 188.36993027 469.15841007 C189.60983314 470.60007792 190.86263497 472.03065533 192.12041855 473.45674992 C199.05114482 481.61138268 202.72428049 489.59365761 203.8977623 500.25753117 C204.54649236 505.88603671 205.72333321 508.91893819 209.43291855 513.13643742 C216.24982772 521.48758701 216.56234511 531.72752461 215.9602623 542.00753117 C214.20037028 552.65636932 208.8184566 561.24637461 200.20635605 567.63253117 C197.86214474 569.06759617 195.53795636 570.06524582 192.9602623 571.00753117 C193.01110806 573.74811776 193.47594508 575.48972572 195.36553574 577.50997257 C197.31109448 579.17827078 199.30315997 580.75827389 201.3352623 582.32003117 C202.05899033 582.89326115 202.78271835 583.46649113 203.52837753 584.05709171 C207.61139944 587.2688999 211.77360625 590.33317671 216.0227623 593.32003117 C230.42052986 603.70282906 235.55069922 620.63739456 238.6008873 637.56221867 C240.23277766 652.35565958 234.70607072 663.35140531 225.75323105 674.83956242 C219.18259923 682.5148889 212.89178064 687.2922833 203.1633873 690.17159367 C201.99968613 690.51915714 200.83598495 690.86672062 199.63702011 691.22481632 C198.31202499 691.61226017 198.31202499 691.61226017 196.9602623 692.00753117 C197.21242619 698.25805807 197.54666418 704.49695556 197.95513535 710.73922062 C198.08251187 712.85909538 198.18803096 714.98040811 198.27056503 717.10250187 C198.21818072 729.69843351 198.21818072 729.69843351 203.82818222 740.29683781 C206.96585746 742.678113 210.41811454 744.29914326 213.9602623 746.00753117 C222.72180878 752.40245684 230.70369642 759.33323191 233.9602623 770.00753117 C236.54530809 789.25176097 225.1265278 811.0058962 213.9602623 826.00753117 C213.53229355 826.61854679 213.1043248 827.22956242 212.6633873 827.85909367 C204.797298 838.36517183 190.2755081 842.3237299 177.9602623 845.00753117 C175.1994898 845.10331307 172.47009484 845.14693029 169.7102623 845.13253117 C168.98452011 845.13639835 168.25877792 845.14026554 167.51104355 845.14424992 C163.35669063 845.13684465 159.40900962 844.80122577 155.28741074 844.23458195 C149.94971203 843.71380354 144.56775449 843.86563056 139.2102623 843.88253117 C138.03077011 843.87866398 136.85127792 843.87479679 135.63604355 843.87081242 C117.13072826 843.89056195 98.92116124 845.41685776 80.54485703 847.53356266 C42.67851865 851.8801644 5.09268225 854.21877797 -33.0397377 854.19503117 C-34.26427658 854.19575626 -35.48881546 854.19648136 -36.75046158 854.19722843 C-53.68697355 854.19613954 -70.56093704 853.80154794 -87.4772377 853.00753117 C-108.1772494 852.05074029 -128.8534997 851.74911659 -149.57231903 851.70247746 C-151.92046569 851.69520695 -154.26850317 851.68203041 -156.61661148 851.66695499 C-185.9073106 851.49251489 -214.86285582 853.44814258 -243.89108658 857.45455265 C-246.72131149 857.84508593 -249.55304946 858.22300008 -252.38519669 858.59932804 C-261.7994036 859.85624496 -271.20498372 861.16850215 -280.60614395 862.51924992 C-328.37112692 869.34708808 -376.46313817 873.47598539 -424.58581924 876.8334589 C-426.76013162 876.9876969 -428.9333556 877.1519708 -431.10663223 877.32003117 C-460.97631152 879.47167712 -492.88487355 880.97028455 -522.12518692 873.71309757 C-525.19973271 872.96879892 -528.2825846 872.34301779 -531.38739395 871.73799992 C-552.44126529 867.58748305 -570.34928637 860.1358665 -582.7897377 841.69503117 C-589.25936045 830.98518271 -590.11818998 821.83327436 -587.24676895 809.64034367 C-585.11464298 802.24317193 -582.60673956 793.57453303 -577.0397377 788.00753117 C-577.30945523 784.2235529 -579.32724614 782.42173971 -581.9147377 779.82003117 C-586.81454755 774.48117026 -588.8476287 769.65760224 -589.2272377 762.44503117 C-589.1653627 761.64065617 -589.1034877 760.83628117 -589.0397377 760.00753117 C-590.2978627 759.67753117 -591.5559877 759.34753117 -592.8522377 759.00753117 C-604.74032519 755.00115207 -613.17442746 746.04144475 -618.7272377 735.07003117 C-624.56916733 721.21962847 -628.16827955 703.69146031 -623.4772377 689.07003117 C-621.07668804 683.36224942 -617.41434971 678.38214318 -613.0397377 674.00753117 C-613.71778458 673.88635929 -614.39583145 673.76518742 -615.0944252 673.64034367 C-617.04970655 673.2882847 -619.00408058 672.93116355 -620.95770645 672.57003117 C-622.87405337 672.22027964 -624.79304468 671.88436273 -626.71551895 671.57003117 C-636.72019203 669.82738204 -643.59725476 665.99510638 -650.0397377 658.00753117 C-656.42467247 648.26040291 -658.23249589 637.39052589 -656.0397377 626.00753117 C-654.05928887 618.23642215 -650.75071868 611.70722562 -645.0397377 606.00753117 C-644.03426895 605.43132023 -643.0288002 604.85510929 -641.9928627 604.26143742 C-638.06670213 601.26488365 -637.37833832 598.52912533 -636.1647377 593.88253117 C-635.95333145 593.15421085 -635.7419252 592.42589054 -635.5241127 591.67549992 C-634.41590183 587.90069613 -634.41590183 587.90069613 -634.0397377 584.00753117 C-635.21328346 583.12588257 -636.4307852 582.3024369 -637.6647377 581.50753117 C-644.79387482 576.32155709 -649.48534301 567.66032828 -651.0397377 559.00753117 C-652.09339632 545.7197253 -650.46287836 536.12122786 -642.29364395 525.49971867 C-637.68798303 520.40715078 -632.86201191 517.08284584 -626.0397377 516.00753117 C-626.0397377 515.34753117 -626.0397377 514.68753117 -626.0397377 514.00753117 C-627.0091127 513.96628117 -627.9784877 513.92503117 -628.9772377 513.88253117 C-636.23327063 512.82497171 -642.2996464 507.51077029 -646.7584877 501.93721867 C-651.63309916 494.59557824 -653.22885856 487.51813885 -653.2897377 478.82003117 C-653.3103627 478.10266788 -653.3309877 477.3853046 -653.3522377 476.64620304 C-653.39291447 470.96670954 -652.09769241 466.28045809 -650.0397377 461.00753117 C-651.29528458 461.05393742 -652.55083145 461.10034367 -653.8444252 461.14815617 C-665.29687348 461.4490246 -674.03031168 461.26218666 -683.2897377 453.82003117 C-691.80042186 445.72198624 -695.94819434 436.37388072 -696.4772377 424.63253117 C-696.14821693 414.63316075 -692.95898681 405.29358384 -686.0397377 398.00753117 C-685.51508926 397.45452335 -684.99044083 396.90151554 -684.44989395 396.33174992 C-674.87348781 387.25106362 -660.50306305 385.92853596 -648.1022377 383.32003117 C-645.27532638 382.71730644 -642.44895663 382.11212056 -639.62285233 381.50562382 C-637.87389401 381.13115155 -636.12436971 380.75931063 -634.37422562 380.39041996 C-633.5858783 380.22321949 -632.79753098 380.05601902 -631.98529434 379.88375187 C-630.94798927 379.66535397 -630.94798927 379.66535397 -629.88972855 379.44254398 C-627.82717175 378.98705259 -627.82717175 378.98705259 -625.0397377 378.00753117 C-625.54762833 377.66721867 -626.05551895 377.32690617 -626.5788002 376.97628117 C-635.86817051 370.43545114 -641.54012573 362.17322649 -643.6100502 350.90206242 C-644.38950384 343.96160823 -643.75214568 338.31198378 -641.6334877 331.66378117 C-640.64725758 327.25169905 -641.80520069 324.09343048 -643.9772377 320.25753117 C-649.12564418 310.26026185 -649.30225896 299.39527662 -646.0788002 288.74581242 C-642.72065939 279.89597517 -637.84933475 272.81817049 -629.23041153 268.64840031 C-619.5571491 264.48633961 -609.71145716 261.03137539 -599.7272377 257.69503117 C-597.33428339 256.89192461 -594.94191838 256.08716645 -592.55067825 255.27896976 C-591.07826989 254.78163426 -589.60482254 254.28736173 -588.13023758 253.79651737 C-584.82434991 252.86722924 -584.82434991 252.86722924 -582.0397377 251.00753117 C-582.82735489 250.75100773 -583.61497208 250.49448429 -584.42645645 250.23018742 C-598.27752953 245.36182208 -611.31223923 237.23717388 -618.6647377 224.10518742 C-623.99532512 212.8231203 -625.80261145 197.25742686 -621.5397377 185.25753117 C-616.33902159 175.03543398 -606.74355349 170.18510751 -597.0397377 165.00753117 C-595.2463299 164.01065711 -593.45435805 163.01118871 -591.6647377 162.00753117 C-590.4569172 161.33993583 -589.24881672 160.67284449 -588.0397377 160.00753117 C-588.82477676 159.66721867 -589.60981583 159.32690617 -590.41864395 158.97628117 C-602.20705042 153.53770346 -607.56959492 146.68288811 -612.2897377 134.88253117 C-614.36043926 124.18390646 -613.73633815 112.94355523 -609.0397377 103.00753117 C-606.02375925 99.25410344 -602.74394405 96.07551886 -599.0397377 93.00753117 C-599.83637833 92.7278046 -600.63301895 92.44807804 -601.4538002 92.15987492 C-612.82256494 87.85855395 -612.82256494 87.85855395 -616.10614395 83.30831242 C-623.48907079 65.11356803 -609.48206827 36.37217854 -602.41254044 19.63790226 C-601.31187153 17.08371367 -600.18524063 14.54190395 -599.0397377 12.00753117 C-594.02056581 12.51795543 -589.10043225 13.17390188 -584.1334877 14.05831242 C-576.76703144 15.19456406 -569.65820167 15.12500752 -562.2272377 14.82003117 C-561.54265488 14.79486423 -560.85807205 14.7696973 -560.15274429 14.74376774 C-542.17056997 14.07722565 -524.1254185 12.71906485 -506.32660294 10.02925968 C-480.13028249 6.17449677 -453.76924221 5.90172992 -427.33701617 5.38277572 C-422.38875033 5.28557358 -417.4407016 5.18042368 -412.4926796 5.07155704 C-358.6280025 3.89448701 -304.77068366 3.75240849 -250.89520645 3.94210148 C-205.82851179 4.19906692 -205.82851179 4.19906692 -160.80170059 2.51729679 C-131.94138874 0.76970701 -103.08836792 0.57268508 -74.18436706 0.41809487 C-67.22170957 0.3803737 -60.25915614 0.33031722 -53.29657936 0.28014779 C-35.53118409 0.15317353 -17.76572048 0.065595 0 0 Z " fill="#FDFDFE" transform="translate(716.039737701416,59.99246883392334)"/>
<path d="M0 0 C0.84997559 0.12858398 1.69995117 0.25716797 2.57568359 0.38964844 C24.20579384 3.75423713 45.40848957 11.32666285 65 21 C65.7130127 21.35030273 66.42602539 21.70060547 67.16064453 22.06152344 C77.64506946 27.27213516 87.45223671 33.23186117 97 40 C98.01449219 40.71800781 99.02898438 41.43601562 100.07421875 42.17578125 C117.48861308 54.89363666 133.91129894 69.81818924 147 87 C147.4340918 87.56831543 147.86818359 88.13663086 148.31542969 88.72216797 C185.49834891 137.65322437 204.84969739 199.78026884 197.19921875 261.2734375 C196.45558806 266.40254416 195.54084856 271.48489265 194.49951172 276.56152344 C194.07997823 278.60956864 193.70813472 280.66730225 193.34765625 282.7265625 C182.96824549 338.49045558 149.09755769 391.86566751 103 425 C102.45537109 425.39477539 101.91074219 425.78955078 101.34960938 426.19628906 C71.56715177 447.65873627 38.09017913 462.32127875 2 469 C0.73857178 469.2477417 0.73857178 469.2477417 -0.54833984 469.50048828 C-49.15644812 478.81744382 -100.94557784 469.4437088 -145 448 C-145.74765625 447.63648438 -146.4953125 447.27296875 -147.265625 446.8984375 C-163.13971986 439.0739723 -177.45933144 429.54066856 -190 417 C-194.31027816 417.10484972 -196.8390377 420.43218033 -199.66723633 423.31079102 C-200.49980705 424.14029518 -200.49980705 424.14029518 -201.34919739 424.98655701 C-203.18414991 426.81849964 -205.00812406 428.66097158 -206.83203125 430.50390625 C-208.10933489 431.78426953 -209.3872319 433.0640411 -210.66569519 434.34324646 C-213.34756264 437.02971962 -216.02444417 439.72102894 -218.69750977 442.41625977 C-222.10674353 445.85363304 -225.52445872 449.28240631 -228.94554615 452.70797825 C-232.22336187 455.99098185 -235.49649182 459.27864214 -238.76953125 462.56640625 C-239.38704569 463.18580141 -240.00456013 463.80519657 -240.64078712 464.44336128 C-242.41130527 466.22084162 -244.17842033 468.00163742 -245.94458008 469.78344727 C-246.4554718 470.29545685 -246.96636353 470.80746643 -247.49273682 471.33499146 C-250.16850221 474.04182039 -252.71940776 476.81104709 -255.19691467 479.70088196 C-259.8414143 485.05322672 -264.88400516 490.00788726 -269.90478516 495.00244141 C-270.99151104 496.08724431 -272.07800665 497.17227792 -273.16429138 498.25752258 C-275.48943577 500.57952469 -277.8161197 502.89996873 -280.14403152 505.21919632 C-283.82848475 508.89004509 -287.50904727 512.56477859 -291.1890564 516.24008179 C-298.99806905 524.03803124 -306.81131531 531.83173244 -314.625 539.625 C-323.06931872 548.04726794 -331.51289162 556.47027572 -339.95159185 564.89817369 C-343.606722 568.54833563 -347.26427293 572.19604881 -350.92372537 575.84187722 C-353.20138054 578.11205259 -355.47694361 580.38431627 -357.75195503 582.65714073 C-358.80358502 583.70690519 -359.85607587 584.75580809 -360.90950966 585.80376244 C-367.17267426 591.96473427 -367.17267426 591.96473427 -372.97006226 598.55429077 C-376.25883182 602.51666553 -379.62227228 603.67128188 -384.54296875 604.3515625 C-392.70791181 604.78917581 -398.70985522 602.40141422 -405.07421875 597.35546875 C-410.05980133 592.72525264 -412.63500689 588.01119319 -413.46875 581.1328125 C-413.49488938 579.79709013 -413.50518823 578.46096804 -413.5 577.125 C-413.5309375 575.80757812 -413.561875 574.49015625 -413.59375 573.1328125 C-412.81593614 563.65143193 -405.66838181 557.1150563 -399.1875 550.875 C-398.03411133 549.73611328 -398.03411133 549.73611328 -396.85742188 548.57421875 C-392.66912337 544.46721211 -388.36588847 540.5477892 -383.92700195 536.71533203 C-380.63932126 533.78878388 -377.5804126 530.64153828 -374.5 527.5 C-370.11485084 523.06744382 -365.72188096 518.75671699 -360.953125 514.734375 C-357.85140337 511.9800462 -354.97734241 508.99745599 -352.06542969 506.04589844 C-348.86566103 502.81952048 -345.54901241 499.8204696 -342.09375 496.875 C-339.46014444 494.51654726 -336.98173782 492.0155432 -334.5 489.5 C-331.44662049 486.40508498 -328.37676315 483.38065723 -325.0625 480.5625 C-321.52320926 477.54647196 -318.26505255 474.30552422 -315 471 C-311.14878063 467.10104317 -307.23578271 463.39175703 -303.05859375 459.83984375 C-299.92846838 457.04233133 -297.01314342 454.03375494 -294.06616211 451.04663086 C-290.86614229 447.82001347 -287.54927728 444.82069539 -284.09375 441.875 C-281.46014444 439.51654726 -278.98173782 437.0155432 -276.5 434.5 C-273.44662049 431.40508498 -270.37676315 428.38065723 -267.0625 425.5625 C-263.52320926 422.54647196 -260.26505255 419.30552422 -257 416 C-253.14878063 412.10104317 -249.23578271 408.39175703 -245.05859375 404.83984375 C-242.43501622 402.49505244 -239.97006366 400.00372722 -237.5 397.5 C-233.16600959 393.11765265 -228.71975378 388.96242939 -224 385 C-224.55504457 381.2306675 -225.97529941 379.88618303 -228.8125 377.4375 C-254.80931302 352.31000716 -267.25642433 309.24976603 -274 275 C-274.2477417 273.79899658 -274.2477417 273.79899658 -274.50048828 272.57373047 C-280.30028477 243.59873893 -278.71597647 210.8178281 -271.56201172 182.25195312 C-270.99227831 179.96905958 -270.45080861 177.68056024 -269.91015625 175.390625 C-265.53513605 157.36058039 -258.79271012 140.31923678 -250 124 C-249.65356445 123.34725098 -249.30712891 122.69450195 -248.95019531 122.02197266 C-238.47253389 102.36557307 -225.32324821 85.13740571 -210 69 C-209.49452637 68.46584473 -208.98905273 67.93168945 -208.46826172 67.38134766 C-201.0362574 59.58318909 -193.23779326 52.64591521 -184.60644531 46.20068359 C-183.16292719 45.12177445 -181.73289382 44.02487916 -180.3046875 42.92578125 C-167.19251419 33.04152828 -152.8527639 24.94183772 -138 18 C-136.40091797 17.23623047 -136.40091797 17.23623047 -134.76953125 16.45703125 C-117.08531072 8.42266553 -98.14204174 3.0905453 -79 0 C-78.1435791 -0.14808105 -77.2871582 -0.29616211 -76.40478516 -0.44873047 C-51.04209257 -4.76331414 -25.34522312 -4.04705265 0 0 Z " fill="#FDFDFD" transform="translate(681,239)"/>
<path d="M0 0 C0.84997559 0.12858398 1.69995117 0.25716797 2.57568359 0.38964844 C24.20579384 3.75423713 45.40848957 11.32666285 65 21 C65.7130127 21.35030273 66.42602539 21.70060547 67.16064453 22.06152344 C77.64506946 27.27213516 87.45223671 33.23186117 97 40 C98.01449219 40.71800781 99.02898438 41.43601562 100.07421875 42.17578125 C117.48861308 54.89363666 133.91129894 69.81818924 147 87 C147.4340918 87.56831543 147.86818359 88.13663086 148.31542969 88.72216797 C185.49834891 137.65322437 204.84969739 199.78026884 197.19921875 261.2734375 C196.45558806 266.40254416 195.54084856 271.48489265 194.49951172 276.56152344 C194.07997823 278.60956864 193.70813472 280.66730225 193.34765625 282.7265625 C182.96824549 338.49045558 149.09755769 391.86566751 103 425 C102.45537109 425.39477539 101.91074219 425.78955078 101.34960938 426.19628906 C71.56715177 447.65873627 38.09017913 462.32127875 2 469 C0.73857178 469.2477417 0.73857178 469.2477417 -0.54833984 469.50048828 C-49.15644812 478.81744382 -100.94557784 469.4437088 -145 448 C-145.74765625 447.63648438 -146.4953125 447.27296875 -147.265625 446.8984375 C-163.13971986 439.0739723 -177.45933144 429.54066856 -190 417 C-194.31027816 417.10484972 -196.8390377 420.43218033 -199.66723633 423.31079102 C-200.49980705 424.14029518 -200.49980705 424.14029518 -201.34919739 424.98655701 C-203.18414991 426.81849964 -205.00812406 428.66097158 -206.83203125 430.50390625 C-208.10933489 431.78426953 -209.3872319 433.0640411 -210.66569519 434.34324646 C-213.34756264 437.02971962 -216.02444417 439.72102894 -218.69750977 442.41625977 C-222.10674353 445.85363304 -225.52445872 449.28240631 -228.94554615 452.70797825 C-232.22336187 455.99098185 -235.49649182 459.27864214 -238.76953125 462.56640625 C-239.38704569 463.18580141 -240.00456013 463.80519657 -240.64078712 464.44336128 C-242.41130527 466.22084162 -244.17842033 468.00163742 -245.94458008 469.78344727 C-246.4554718 470.29545685 -246.96636353 470.80746643 -247.49273682 471.33499146 C-250.16850221 474.04182039 -252.71940776 476.81104709 -255.19691467 479.70088196 C-259.8414143 485.05322672 -264.88400516 490.00788726 -269.90478516 495.00244141 C-270.99151104 496.08724431 -272.07800665 497.17227792 -273.16429138 498.25752258 C-275.48943577 500.57952469 -277.8161197 502.89996873 -280.14403152 505.21919632 C-283.82848475 508.89004509 -287.50904727 512.56477859 -291.1890564 516.24008179 C-298.99806905 524.03803124 -306.81131531 531.83173244 -314.625 539.625 C-323.06931872 548.04726794 -331.51289162 556.47027572 -339.95159185 564.89817369 C-343.606722 568.54833563 -347.26427293 572.19604881 -350.92372537 575.84187722 C-353.20138054 578.11205259 -355.47694361 580.38431627 -357.75195503 582.65714073 C-358.80358502 583.70690519 -359.85607587 584.75580809 -360.90950966 585.80376244 C-367.17267426 591.96473427 -367.17267426 591.96473427 -372.97006226 598.55429077 C-376.25883182 602.51666553 -379.62227228 603.67128188 -384.54296875 604.3515625 C-392.70791181 604.78917581 -398.70985522 602.40141422 -405.07421875 597.35546875 C-410.05980133 592.72525264 -412.63500689 588.01119319 -413.46875 581.1328125 C-413.49488938 579.79709013 -413.50518823 578.46096804 -413.5 577.125 C-413.5309375 575.80757812 -413.561875 574.49015625 -413.59375 573.1328125 C-412.81593614 563.65143193 -405.66838181 557.1150563 -399.1875 550.875 C-398.03411133 549.73611328 -398.03411133 549.73611328 -396.85742188 548.57421875 C-392.66912337 544.46721211 -388.36588847 540.5477892 -383.92700195 536.71533203 C-380.63932126 533.78878388 -377.5804126 530.64153828 -374.5 527.5 C-370.11485084 523.06744382 -365.72188096 518.75671699 -360.953125 514.734375 C-357.85140337 511.9800462 -354.97734241 508.99745599 -352.06542969 506.04589844 C-348.86566103 502.81952048 -345.54901241 499.8204696 -342.09375 496.875 C-339.46014444 494.51654726 -336.98173782 492.0155432 -334.5 489.5 C-331.44662049 486.40508498 -328.37676315 483.38065723 -325.0625 480.5625 C-321.52320926 477.54647196 -318.26505255 474.30552422 -315 471 C-311.14878063 467.10104317 -307.23578271 463.39175703 -303.05859375 459.83984375 C-299.92846838 457.04233133 -297.01314342 454.03375494 -294.06616211 451.04663086 C-290.86614229 447.82001347 -287.54927728 444.82069539 -284.09375 441.875 C-281.46014444 439.51654726 -278.98173782 437.0155432 -276.5 434.5 C-273.44662049 431.40508498 -270.37676315 428.38065723 -267.0625 425.5625 C-263.52320926 422.54647196 -260.26505255 419.30552422 -257 416 C-253.14878063 412.10104317 -249.23578271 408.39175703 -245.05859375 404.83984375 C-242.43501622 402.49505244 -239.97006366 400.00372722 -237.5 397.5 C-233.16600959 393.11765265 -228.71975378 388.96242939 -224 385 C-224.55504457 381.2306675 -225.97529941 379.88618303 -228.8125 377.4375 C-254.80931302 352.31000716 -267.25642433 309.24976603 -274 275 C-274.2477417 273.79899658 -274.2477417 273.79899658 -274.50048828 272.57373047 C-280.30028477 243.59873893 -278.71597647 210.8178281 -271.56201172 182.25195312 C-270.99227831 179.96905958 -270.45080861 177.68056024 -269.91015625 175.390625 C-265.53513605 157.36058039 -258.79271012 140.31923678 -250 124 C-249.65356445 123.34725098 -249.30712891 122.69450195 -248.95019531 122.02197266 C-238.47253389 102.36557307 -225.32324821 85.13740571 -210 69 C-209.49452637 68.46584473 -208.98905273 67.93168945 -208.46826172 67.38134766 C-201.0362574 59.58318909 -193.23779326 52.64591521 -184.60644531 46.20068359 C-183.16292719 45.12177445 -181.73289382 44.02487916 -180.3046875 42.92578125 C-167.19251419 33.04152828 -152.8527639 24.94183772 -138 18 C-136.40091797 17.23623047 -136.40091797 17.23623047 -134.76953125 16.45703125 C-117.08531072 8.42266553 -98.14204174 3.0905453 -79 0 C-78.1435791 -0.14808105 -77.2871582 -0.29616211 -76.40478516 -0.44873047 C-51.04209257 -4.76331414 -25.34522312 -4.04705265 0 0 Z M-78 42 C-78.93134766 42.18232178 -79.86269531 42.36464355 -80.82226562 42.55249023 C-127.42680419 52.11741385 -169.56849055 76.15948785 -199 114 C-199.43070801 114.54897949 -199.86141602 115.09795898 -200.30517578 115.66357422 C-231.72129947 155.97810268 -245.13553438 207.42825035 -239.3125 258.0625 C-238.92079688 260.72825736 -238.49410641 263.35437198 -238 266 C-237.84402344 266.85787109 -237.68804687 267.71574219 -237.52734375 268.59960938 C-231.1257722 302.85987195 -217.08262711 334.66808169 -194 361 C-193.28457031 361.825 -192.56914062 362.65 -191.83203125 363.5 C-189.59205502 366.0373182 -187.30934249 368.52570448 -185 371 C-184.20335937 371.86238281 -183.40671875 372.72476562 -182.5859375 373.61328125 C-157.62764573 399.66491208 -121.64326982 418.95060888 -86.3125 425.6875 C-84.71825195 426.00557617 -84.71825195 426.00557617 -83.09179688 426.33007812 C-74.00918336 428.10625856 -65.13623468 429.14684546 -55.8828125 429.2734375 C-55.03618546 429.28601089 -54.18955841 429.29858429 -53.317276 429.3115387 C-0.80079133 429.93983034 48.3385248 414.72840144 87 378 C88.3486155 376.84763825 89.70241463 375.70130164 91.0625 374.5625 C110.00125806 357.97183999 124.14922222 334.86749062 134.13427734 311.97900391 C134.94005604 310.13702926 135.775523 308.30812053 136.61328125 306.48046875 C141.68710535 294.79887373 144.39489851 282.42907365 147 270 C147.19795166 269.13383057 147.39590332 268.26766113 147.59985352 267.37524414 C149.76232875 256.6733665 149.44165206 245.68341483 149.4375 234.8125 C149.43790283 233.73830811 149.43830566 232.66411621 149.4387207 231.55737305 C149.40389277 215.47046922 148.6945953 200.49133163 144 185 C143.71592285 184.01322266 143.4318457 183.02644531 143.13916016 182.00976562 C134.0163576 150.7400619 118.36708788 123.59763964 96 100 C95.54463867 99.51208984 95.08927734 99.02417969 94.62011719 98.52148438 C82.99537172 86.1330695 69.69369876 75.40540351 54.86474609 67.05273438 C53.53059847 66.29954708 52.20353398 65.53375808 50.88134766 64.75976562 C29.11685506 52.0957797 4.94230065 44.27391351 -20 41 C-20.65178223 40.90050049 -21.30356445 40.80100098 -21.97509766 40.69848633 C-29.38745514 39.68396579 -36.87905957 39.81393536 -44.34570312 39.81469727 C-46.73065232 39.81251768 -49.11513265 39.79432986 -51.5 39.77539062 C-60.52202322 39.74119897 -69.11767025 40.23729249 -78 42 Z " fill="#010101" transform="translate(681,239)"/>
<path d="M0 0 C14.64444836 2.00888341 28.03059481 2.91895763 42.6015625 -0.265625 C46.74310612 -1.16057925 50.7738377 -1.75097137 55 -2 C56.00160156 -2.06445312 57.00320313 -2.12890625 58.03515625 -2.1953125 C66.12465878 -2.49019109 66.12465878 -2.49019109 70.125 -0.25 C73.61666411 3.93999694 74.24388427 6.78132344 74.125 12.25 C74.10695313 13.32765625 74.08890625 14.4053125 74.0703125 15.515625 C74.03550781 16.74539062 74.03550781 16.74539062 74 18 C73.39341553 18.24008789 72.78683105 18.48017578 72.16186523 18.72753906 C45.75565851 29.25733284 21.71685577 41.98909034 -0.8125 59.35546875 C-1.56660156 59.92672485 -1.56660156 59.92672485 -2.3359375 60.50952148 C-4.13893389 62.03159828 -4.13893389 62.03159828 -5.7890625 64.33618164 C-8.74267866 67.80500243 -11.47351274 70.59122514 -16.140625 71.34634399 C-21.93952417 71.57989596 -27.71026569 70.95707205 -33.47680664 70.39584351 C-39.86032192 69.79187343 -46.25714564 69.38839608 -52.65625 68.9921875 C-53.37507858 68.94662657 -54.09390717 68.90106564 -54.83451843 68.85412407 C-78.02687157 67.41512077 -101.27320196 67.64070405 -124.5 67.6875 C-126.22562101 67.69012659 -126.22562101 67.69012659 -127.98610306 67.69280624 C-157.3104335 67.73930243 -186.62600724 67.96883527 -215.9375 68.875 C-217.21818359 68.91402435 -218.49886719 68.95304871 -219.81835938 68.99325562 C-232.80107289 69.40693509 -245.75497191 70.04923291 -258.7109375 70.984375 C-259.81827744 71.06380341 -260.92561737 71.14323181 -262.06651306 71.22506714 C-274.8285379 72.20358604 -287.0268074 74.87094812 -299.37890625 78.1328125 C-305.44039486 79.58443113 -311.33534219 80.19115026 -317.5625 80.3125 C-318.82191406 80.34988281 -320.08132813 80.38726562 -321.37890625 80.42578125 C-325.66336997 79.92199857 -327.71116456 78.75109884 -331 76 C-332.390625 73.9921875 -332.390625 73.9921875 -333.25 71.875 C-333.54390625 71.19179688 -333.8378125 70.50859375 -334.140625 69.8046875 C-336.43722817 62.30940987 -337.29791048 55.0370591 -337.23046875 47.22265625 C-337.23001053 46.33066025 -337.22955231 45.43866425 -337.2290802 44.51963806 C-337.22608261 42.64825089 -337.21827217 40.77686566 -337.20581055 38.90551758 C-337.18756754 36.07298735 -337.18530135 33.24078603 -337.18554688 30.40820312 C-337.16775639 21.56575105 -337.11916875 12.78721331 -336 4 C-317.34774045 2.42901754 -298.68507553 1.10842176 -280 0 C-279.06031372 -0.05585266 -278.12062744 -0.11170532 -277.15246582 -0.16925049 C-260.92437804 -1.12972311 -244.69274191 -2.00663296 -228.45684814 -2.82427979 C-225.22993441 -2.98831186 -222.00338493 -3.1581924 -218.77685547 -3.32958984 C-147.00870364 -7.07809877 -71.3067099 -10.45083935 0 0 Z " fill="#010101" transform="translate(486,219)"/>
<path d="M0 0 C4.51303816 1.77828785 8.58639552 4.15721886 12.50390625 7.01171875 C33.17446841 21.22889477 58.85266151 28.93042307 83.0625 34.4375 C84.61106689 34.79013916 84.61106689 34.79013916 86.19091797 35.14990234 C102.31084738 38.58146062 118.43706773 39.4112553 134.875 39.375 C136.27848694 39.37418427 136.27848694 39.37418427 137.71032715 39.37335205 C178.12079229 39.2659551 217.79911508 29.56224896 253.30712891 10.02612305 C267.2126308 2.40630825 281.72258593 -1.38159894 297.61328125 1.46875 C301.45339582 2.6837015 304.45434159 4.72165662 306.96115112 7.87109375 C309.35542055 12.77765452 308.68306107 18.60140942 308.62890625 23.9375 C308.62973593 25.30460804 308.63219905 26.67171597 308.63621521 28.03881836 C308.6390661 30.89695444 308.62444377 33.75430379 308.59692383 36.61230469 C308.56284042 40.26421464 308.56886498 43.91471889 308.5875864 47.56669617 C308.59818732 50.38760971 308.58919095 53.20819974 308.57420158 56.02908325 C308.56654443 58.02645569 308.57385285 60.02386751 308.58143616 62.02124023 C308.43416693 73.38021679 308.43416693 73.38021679 304 78 C297.59441676 81.87003987 292.08994995 82.18194045 284.8125 82.1875 C284.01908203 82.19974609 283.22566406 82.21199219 282.40820312 82.22460938 C276.94255758 82.23734981 271.61402808 81.7488529 266.19799805 81.0559082 C257.45695673 79.98976575 248.7297203 79.33243601 239.9375 78.875 C239.14264191 78.83264221 238.34778381 78.79028442 237.52883911 78.74664307 C215.36336274 77.59928692 193.18665578 77.85126362 171 78 C163.76719344 78.04776448 156.53447247 78.0881506 149.30154419 78.11187744 C146.46449072 78.12459873 143.62773182 78.14955134 140.79077148 78.17529297 C126.84231967 78.25566228 114.01172339 76.89428655 100.5625 72.9375 C98.7108018 72.40090643 96.85795612 71.86825455 95.00390625 71.33984375 C94.20799072 71.10644287 93.4120752 70.87304199 92.59204102 70.63256836 C86.45195127 69.13412506 80.45581212 68.8417591 74.17578125 68.83203125 C73.33091156 68.82770584 72.48604187 68.82338043 71.61557007 68.81892395 C68.84782335 68.80876451 66.08026185 68.80876823 63.3125 68.8125 C61.86370956 68.81440338 61.86370956 68.81440338 60.38565063 68.81634521 C29.6180421 68.89284302 -0.86529525 71.32951117 -31.5 73.9375 C-32.25213902 74.00143196 -33.00427803 74.06536392 -33.77920914 74.13123322 C-50.90801734 75.58939331 -68.01903394 77.11543004 -85.09753418 79.08909607 C-90.7767081 79.73029574 -96.28449464 80.14478934 -102 80 C-100.67761296 77.09530244 -99.22726081 74.94711266 -97.03573608 72.63372803 C-96.42819489 71.98875366 -95.82065369 71.3437793 -95.19470215 70.67926025 C-94.52894165 69.98298523 -93.86318115 69.28671021 -93.17724609 68.56933594 C-92.4742337 67.82748047 -91.77122131 67.085625 -91.04690552 66.32128906 C-84.53819453 59.47464245 -77.95555928 52.69878188 -71.35172081 45.94396591 C-66.92256629 41.41224069 -62.51945713 36.86067285 -58.17138672 32.25097656 C-53.95610262 27.78312475 -49.68319121 23.37848016 -45.36500931 19.01007843 C-43.73891838 17.3450049 -42.13358291 15.65936931 -40.55128098 13.95262909 C-28.64218648 1.15263629 -17.72410627 -4.11067916 0 0 Z " fill="#010101" transform="translate(506,684)"/>
<path d="M0 0 C0.9390921 -0.00200409 1.8781842 -0.00400818 2.84573364 -0.006073 C20.34049606 -0.01504984 37.72740736 0.86047507 55.17260742 2.12768555 C63.83757059 2.75326986 72.44933539 3.3621803 81.140625 3.3203125 C103.20077397 3.24991497 103.20077397 3.24991497 111.28125 11.16015625 C111.72855469 11.65402832 112.17585938 12.14790039 112.63671875 12.65673828 C114.32654806 14.46576487 116.12208774 16.09773989 117.96875 17.74609375 C142.45517497 39.67043361 142.45517497 39.67043361 143.24560547 53.33496094 C143.33046855 55.66191667 143.35971927 57.98409946 143.375 60.3125 C143.4059375 61.49682617 143.4059375 61.49682617 143.4375 62.70507812 C143.46862077 67.34596278 143.3103079 70.60295629 140.125 74.25 C134.68587222 77.81680117 129.7308073 77.70111788 123.44921875 77.68359375 C121.86497101 77.69363182 121.86497101 77.69363182 120.24871826 77.70387268 C116.76971223 77.71726126 113.29148357 77.70430911 109.8125 77.6875 C108.00919724 77.68592896 108.00919724 77.68592896 106.16946411 77.68432617 C89.20108549 77.65405178 72.45026133 76.85039311 55.5625 75.25 C19.37764316 71.86510136 -16.4734373 72.35199528 -52.63500977 75.75146484 C-69.54484401 77.31406711 -86.3868915 77.79913277 -103.36425781 77.92163086 C-112.82536569 78.00420107 -122.05776726 78.35560556 -131.44746399 79.54431152 C-139.1396824 80.48500102 -146.76225659 80.47401024 -154.5 80.375 C-155.91145176 80.3649182 -157.32291074 80.35580182 -158.734375 80.34765625 C-162.11477891 80.3245028 -165.4947858 80.29190615 -168.875 80.25 C-166.92710217 73.37506649 -164.04383746 67.5739952 -160.3125 61.5 C-159.78164795 60.62746582 -159.2507959 59.75493164 -158.70385742 58.85595703 C-151.83496886 47.73392166 -143.86876789 37.74423943 -134.875 28.25 C-133.99457031 27.30511719 -133.11414063 26.36023438 -132.20703125 25.38671875 C-129.75850896 22.80458696 -127.21803814 20.34312505 -124.62693787 17.90486145 C-123.49047218 16.83136833 -122.36435463 15.74677163 -121.25086975 14.64945984 C-111.17605701 4.93044364 -102.64467046 2.79142913 -88.81835938 2.9375 C-86.64966802 2.99746532 -84.48104544 3.05997127 -82.3125 3.125 C-78.04048775 3.18332099 -73.76837653 3.21089531 -69.49609375 3.2421875 C-68.44618256 3.25586365 -67.39627136 3.26953979 -66.31454468 3.28363037 C-56.23536206 3.3724132 -46.31683501 2.5153023 -36.29818726 1.49456787 C-24.19764405 0.27328211 -12.1504623 0.01277199 0 0 Z " fill="#010101" transform="translate(638.875,319.75)"/>
<path d="M0 0 C5.17693365 0.04165965 10.35395127 0.05934251 15.53100586 0.0793457 C25.60478638 0.1216509 35.67820567 0.18949043 45.75170898 0.2746582 C31.9427934 35.86032354 -4.52756445 64.43524989 -37.81469727 80.57543945 C-42.115241 82.42513568 -45.73577209 82.78859484 -50.37329102 82.5871582 C-51.01782227 82.57749023 -51.66235352 82.56782227 -52.32641602 82.55786133 C-56.97851973 82.45615184 -61.60816409 82.10731288 -66.24829102 81.77075195 C-74.54295643 81.20645037 -82.81089432 81.03656889 -91.12329102 81.0246582 C-91.88219635 81.02232178 -92.64110168 81.01998535 -93.42300415 81.01757812 C-104.24816374 81.00512419 -114.72466741 81.69878888 -125.45776367 83.19628906 C-135.35034151 84.53538452 -145.05483045 84.69257416 -155.02319336 84.36499023 C-157.26510784 84.30219626 -159.50796245 84.26886298 -161.75073242 84.25854492 C-180.79534089 84.15896861 -194.2978022 80.72349964 -210.24829102 70.2746582 C-211.45461182 69.5024292 -211.45461182 69.5024292 -212.68530273 68.71459961 C-221.34120824 63.11435697 -229.19935245 56.88167162 -236.63500977 49.74731445 C-238.51450191 47.9689609 -240.37650432 46.31756659 -242.37329102 44.68481445 C-246.12662157 41.53834033 -249.1147846 38.02207608 -252.24829102 34.2746582 C-252.96243164 33.43676758 -253.67657227 32.59887695 -254.41235352 31.7355957 C-269.24829102 14.04463243 -269.24829102 14.04463243 -269.24829102 10.2746582 C-255.27046811 10.25127714 -241.29264826 10.23371997 -227.3148098 10.22284603 C-220.82436825 10.21762714 -214.33393984 10.21054746 -207.84350586 10.19921875 C-201.580073 10.18835465 -195.31665277 10.18237387 -189.05321121 10.17978096 C-186.66341579 10.17793308 -184.27362107 10.17432467 -181.88383102 10.16892815 C-178.53704075 10.16167104 -175.19030273 10.16066925 -171.84350586 10.16113281 C-170.85519775 10.15753754 -169.86688965 10.15394226 -168.84863281 10.15023804 C-164.1899869 10.15722194 -159.83503374 10.35279917 -155.24829102 11.2746582 C-139.02423105 12.33224168 -123.28240684 10.89198953 -107.27954102 8.34887695 C-99.21331725 7.07202327 -91.11880439 6.24434589 -82.99298096 5.45054626 C-77.34674863 4.88035281 -71.75097363 4.23796152 -66.15942383 3.26196289 C-44.15028622 -0.49567626 -22.26498934 -0.19876257 0 0 Z " fill="#000000" transform="translate(750.248291015625,558.725341796875)"/>
<path d="M0 0 C-0.10501831 1.1281311 -0.10501831 1.1281311 -0.2121582 2.27905273 C-0.97885902 11.21169349 -1.1967931 20.10304897 -1.1875 29.0625 C-1.1882251 29.7817868 -1.1889502 30.50107361 -1.18969727 31.24215698 C-1.18855122 41.573919 -0.75007271 51.74760569 0.5625 62.00390625 C1.06693749 66.02462772 1.07288409 69.9503777 1 74 C-3.80891203 74.9498182 -8.49044479 75.15686499 -13.375 75.17358398 C-14.19575516 75.180271 -15.01651031 75.18695801 -15.86213684 75.19384766 C-17.64136294 75.20785976 -19.42060661 75.21976591 -21.19985962 75.22979546 C-24.04825936 75.24637464 -26.89653599 75.26963293 -29.74487305 75.29469299 C-37.84368555 75.36489427 -45.94255634 75.42456067 -54.04150391 75.47680664 C-82.34942182 75.6184633 -82.34942182 75.6184633 -110.625 76.84765625 C-111.71143799 76.91560898 -112.79787598 76.98356171 -113.91723633 77.05357361 C-119.64191833 77.47736708 -125.25534646 78.18569872 -130.9138155 79.12549686 C-142.80915233 81.07685246 -154.44918491 81.50723396 -166.48828125 81.5390625 C-168.57285209 81.55128357 -170.65742138 81.56377068 -172.74198914 81.57650757 C-177.06558148 81.5987485 -181.38900026 81.60851447 -185.71264648 81.61083984 C-191.2430192 81.61617329 -196.77195543 81.66791434 -202.30193806 81.73035622 C-206.58713011 81.77120736 -210.87196978 81.78048176 -215.1573391 81.78095627 C-217.19748347 81.78632407 -219.23763246 81.80311703 -221.27758217 81.83180618 C-224.12013885 81.86853291 -226.95934085 81.86082724 -229.80200195 81.84228516 C-231.04960045 81.87296585 -231.04960045 81.87296585 -232.32240295 81.90426636 C-237.09786305 81.81881634 -239.5312694 80.99392296 -243.01237488 77.63485718 C-246.32688701 74.00868644 -247.12062415 71.1044705 -247.17700195 66.24755859 C-247.18983719 65.2815976 -247.20267242 64.3156366 -247.21589661 63.32040405 C-247.22328354 62.27365509 -247.23067047 61.22690613 -247.23828125 60.1484375 C-247.246353 59.0610025 -247.25442474 57.9735675 -247.26274109 56.85317993 C-247.27658973 54.54145909 -247.28730838 52.22971772 -247.29516602 49.91796875 C-247.30659968 47.58099267 -247.32691169 45.24404089 -247.35668945 42.90722656 C-247.39998653 39.50828535 -247.41562807 36.11012251 -247.42578125 32.7109375 C-247.44328934 31.69252777 -247.46079742 30.67411804 -247.47883606 29.62484741 C-247.45206653 20.38230966 -245.33495292 11.88303701 -243 3 C-241.96290406 3.00138269 -241.96290406 3.00138269 -240.90485668 3.00279331 C-143.57826764 3.23256142 -143.57826764 3.23256142 -46.25461197 2.65256882 C-43.69493703 2.62507987 -41.13525105 2.60126752 -38.57553101 2.57839966 C-34.65635492 2.5426246 -30.73743588 2.49686949 -26.81848145 2.44199944 C-24.79775541 2.41536145 -22.77692543 2.39699056 -20.75610352 2.37904358 C-13.69378889 2.26073253 -6.84717011 0 0 0 Z " fill="#010101" transform="translate(393,443)"/>
<path d="M0 0 C2.02592933 2.53349621 2.97943303 4.71388672 4.01171875 7.78125 C4.33527344 8.7196875 4.65882813 9.658125 4.9921875 10.625 C6.19403998 14.46189992 6.95058013 17.79711192 7.0012207 21.83105469 C7.02047356 23.17330109 7.02047356 23.17330109 7.04011536 24.54266357 C7.04750229 25.50311584 7.05488922 26.46356812 7.0625 27.453125 C7.07057175 28.44950989 7.07864349 29.44589478 7.08695984 30.47247314 C7.10077994 32.5805895 7.11151135 34.68872804 7.11938477 36.796875 C7.13090273 38.94603052 7.15135152 41.09515749 7.1809082 43.24414062 C7.22369885 46.35566579 7.23977026 49.46634167 7.25 52.578125 C7.26750809 53.53048035 7.28501617 54.48283569 7.30305481 55.46405029 C7.2837413 61.45462861 6.54011614 66.41878739 2.82421875 71.28125 C-6.95405761 80.28903397 -20.62476529 79.82493733 -33.10102463 79.61247444 C-35.91087365 79.56494031 -38.71998453 79.54350961 -41.53018188 79.5276947 C-47.53736956 79.48914364 -53.54394307 79.41781123 -59.55078125 79.34375 C-67.39182404 79.25057284 -75.2327411 79.17383602 -83.07421875 79.12890625 C-84.0389316 79.12297455 -85.00364445 79.11704285 -85.99759102 79.1109314 C-104.02370916 79.0289186 -121.83058773 80.1811299 -139.77543736 81.78310299 C-176.9384566 84.96384234 -176.9384566 84.96384234 -187.67578125 77.09375 C-193.77740443 70.22942392 -193.66033465 62.59337267 -193.55078125 53.84375 C-193.54208008 52.68866943 -193.53337891 51.53358887 -193.52441406 50.34350586 C-193.37908978 41.80570412 -192.54193267 33.73790876 -190.65527344 25.421875 C-190.10953778 22.98551541 -189.61367364 20.54139651 -189.12109375 18.09375 C-186.41036366 4.75041482 -186.41036366 4.75041482 -185.17578125 2.28125 C-181.60001292 2.38385574 -178.02430819 2.48851084 -174.44863892 2.59451294 C-173.04758395 2.6359912 -171.6465218 2.67722697 -170.24545288 2.7182312 C-159.55642362 3.03247062 -148.86992096 3.39734982 -138.18359375 3.79296875 C-105.99198182 5.02127307 -105.99198182 5.02127307 -73.78378296 5.57980347 C-72.24698165 5.58889296 -70.71019888 5.60275744 -69.17349243 5.62210083 C-60.34941491 5.72241258 -52.22990198 4.94547269 -43.61376953 3.03637695 C-38.93434222 2.00857773 -34.23460745 1.34851546 -29.48828125 0.71875 C-22.80686567 -0.19191293 -16.17024572 -1.18412305 -9.55078125 -2.484375 C-5.60157238 -2.87409956 -3.1481088 -2.48683639 0 0 Z " fill="#010101" transform="translate(337.17578125,563.71875)"/>
<path d="M0 0 C-0.66386719 0.66257812 -1.32773437 1.32515625 -2.01171875 2.0078125 C-4.25045106 4.24575736 -6.47974745 6.49285138 -8.70703125 8.7421875 C-10.0754682 10.11984395 -11.44395897 11.49744694 -12.8125 12.875 C-13.48603516 13.55691406 -14.15957031 14.23882813 -14.85351562 14.94140625 C-18.81317007 18.92000641 -22.88018147 22.68806455 -27.1315918 26.35205078 C-29.8828657 28.77869378 -32.44045416 31.37436771 -35 34 C-38.84850236 37.90149379 -42.7644768 41.60846364 -46.94140625 45.16015625 C-49.56498723 47.50495064 -52.02990104 49.99630568 -54.5 52.5 C-58.13921076 56.18870699 -61.86922621 59.67882229 -65.81640625 63.03515625 C-69.34415972 66.20950329 -72.64858235 69.60827895 -75.96459961 73.00170898 C-80.81033222 77.92966646 -80.81033222 77.92966646 -84.33474731 78.13803101 C-85.31241058 78.14452667 -86.29007385 78.15102234 -87.29736328 78.15771484 C-88.40677277 78.16797699 -89.51618225 78.17823914 -90.65921021 78.18881226 C-91.86737396 78.19611359 -93.07553772 78.20341492 -94.3203125 78.2109375 C-96.88412055 78.23904384 -99.44792254 78.26770847 -102.01171875 78.296875 C-106.04864471 78.33898724 -110.08549526 78.37473943 -114.12255859 78.40136719 C-135.25035293 78.48382715 -135.25035293 78.48382715 -156 82 C-156.86028809 82.19932129 -157.72057617 82.39864258 -158.60693359 82.60400391 C-160.62089828 83.07847068 -162.62391933 83.59883593 -164.625 84.125 C-172.17924084 86.10166748 -179.21176723 87.23362944 -187 87.375 C-188.17175781 87.43107422 -188.17175781 87.43107422 -189.3671875 87.48828125 C-193.47741413 87.55055741 -196.17072829 87.31261957 -199.453125 84.70703125 C-208.08588045 75.53141848 -207.33705484 60.39015955 -207.25 48.625 C-207.2478952 47.92422333 -207.24579041 47.22344666 -207.24362183 46.50143433 C-207.12961542 14.12961542 -207.12961542 14.12961542 -204 11 C-202.58371024 10.85529416 -201.1609105 10.77299486 -199.73828125 10.71875 C-198.86623047 10.68136719 -197.99417969 10.64398437 -197.09570312 10.60546875 C-196.17724609 10.57066406 -195.25878906 10.53585937 -194.3125 10.5 C-192.51679203 10.43048872 -190.72120928 10.35765119 -188.92578125 10.28125 C-188.12567627 10.25095703 -187.32557129 10.22066406 -186.5012207 10.18945312 C-183.95578665 10.0396438 -183.95578665 10.0396438 -181.30175781 9.51367188 C-176.95263057 8.83705521 -172.64062129 8.67111801 -168.24609375 8.5 C-167.26585739 8.4598024 -166.28562103 8.4196048 -165.27568054 8.37818909 C-161.99647236 8.24679288 -158.71703719 8.12289511 -155.4375 8 C-154.29851257 7.95575897 -153.15952515 7.91151794 -151.98602295 7.86593628 C-137.06740151 7.2938847 -122.15831955 6.91968968 -107.23046875 6.75390625 C-106.47930471 6.74517864 -105.72814068 6.73645103 -104.9542141 6.72745895 C-97.53079328 6.64135037 -90.10762418 6.56500397 -82.68377876 6.529006 C-58.87268818 6.39991231 -35.20849949 5.10418269 -11.71591187 0.91648865 C-7.7552943 0.21458444 -4.02286425 -0.1317943 0 0 Z " fill="#010101" transform="translate(358,696)"/>
<path d="M0 0 C12.46827315 10.50264122 14.44632416 32.6612591 16 48 C16.10142257 50.83559251 16.09664749 53.663132 16.0625 56.5 C16.05798828 57.22703125 16.05347656 57.9540625 16.04882812 58.703125 C16.03721193 60.46878681 16.01928441 62.2344053 16 64 C11.87268117 62.5793649 8.91788318 60.56986943 5.5 57.875 C-13.48375032 43.32575106 -35.45138478 32.73583895 -58 25 C-58.8957373 24.68691895 -59.79147461 24.37383789 -60.71435547 24.05126953 C-73.95516897 19.46058805 -87.15364962 16.14751191 -101 14 C-102.00546875 13.82122314 -103.0109375 13.64244629 -104.046875 13.45825195 C-115.55532925 11.61647569 -127.01879493 11.73070873 -138.64648438 11.79418945 C-142.15241655 11.81264432 -145.6580864 11.81469721 -149.1640625 11.81445312 C-151.40364812 11.81936261 -153.64323196 11.82518843 -155.8828125 11.83203125 C-157.44686325 11.83370049 -157.44686325 11.83370049 -159.04251099 11.83540344 C-160.50090897 11.84497322 -160.50090897 11.84497322 -161.98876953 11.85473633 C-162.83843292 11.85854813 -163.68809631 11.86235992 -164.56350708 11.86628723 C-167.12381825 12.00679505 -169.49492018 12.46799433 -172 13 C-175.00834492 13.11956856 -177.98728504 13.04496589 -181 13 C-181 9.37 -181 5.74 -181 2 C-169.55735719 1.97650567 -158.1147204 1.95890074 -146.67205811 1.94818783 C-141.35493092 1.94303812 -136.0378206 1.93609059 -130.72070312 1.92456055 C-89.79142888 1.83829734 -89.79142888 1.83829734 -70.8984375 2.4375 C-69.67729248 2.47596542 -68.45614746 2.51443085 -67.19799805 2.55406189 C-56.95358608 2.92369868 -46.74872508 3.6923794 -36.5390625 4.59765625 C-25.19460042 5.55444325 -25.19460042 5.55444325 -14.375 2.5 C-9.15916334 0.35230255 -5.60030755 -1.00005492 0 0 Z " fill="#040404" transform="translate(782,213)"/>
<path d="M0 0 C1.38296383 0.01143555 2.76581807 0.03739992 4.1484375 0.0703125 C7.7990625 0.1321875 7.7990625 0.1321875 11.5234375 0.1953125 C15.4834375 9.1053125 19.4434375 18.0153125 23.5234375 27.1953125 C25.91338133 24.80536867 26.77798589 22.63251505 28.125 19.53125 C28.61484375 18.40976562 29.1046875 17.28828125 29.609375 16.1328125 C30.37121094 14.369375 30.37121094 14.369375 31.1484375 12.5703125 C31.6640625 11.38695312 32.1796875 10.20359375 32.7109375 8.984375 C33.98598476 6.05648869 35.25661931 3.12676648 36.5234375 0.1953125 C38.79401127 0.14132263 41.06495038 0.10252508 43.3359375 0.0703125 C44.60050781 0.04710937 45.86507812 0.02390625 47.16796875 0 C50.5234375 0.1953125 50.5234375 0.1953125 53.5234375 2.1953125 C53.7109375 5.3203125 53.7109375 5.3203125 53.5234375 8.1953125 C51.5434375 9.1853125 51.5434375 9.1853125 49.5234375 10.1953125 C49.1934375 22.7353125 48.8634375 35.2753125 48.5234375 48.1953125 C50.1734375 48.1953125 51.8234375 48.1953125 53.5234375 48.1953125 C54.5234375 49.1953125 54.5234375 49.1953125 54.7734375 52.1328125 C54.6909375 53.1434375 54.6084375 54.1540625 54.5234375 55.1953125 C51.41940385 57.26466827 50.70443731 57.45049159 47.1796875 57.4609375 C46.34566406 57.46351563 45.51164063 57.46609375 44.65234375 57.46875 C43.78480469 57.46101563 42.91726563 57.45328125 42.0234375 57.4453125 C40.72212891 57.45691406 40.72212891 57.45691406 39.39453125 57.46875 C38.56050781 57.46617187 37.72648437 57.46359375 36.8671875 57.4609375 C36.10599609 57.45868164 35.34480469 57.45642578 34.56054688 57.45410156 C32.5234375 57.1953125 32.5234375 57.1953125 29.5234375 55.1953125 C29.2109375 52.6953125 29.2109375 52.6953125 29.5234375 50.1953125 C30.1834375 49.5353125 30.8434375 48.8753125 31.5234375 48.1953125 C34.1634375 48.1953125 36.8034375 48.1953125 39.5234375 48.1953125 C39.1934375 39.2853125 38.8634375 30.3753125 38.5234375 21.1953125 C35.60392358 28.06027916 35.60392358 28.06027916 32.68969727 34.92749023 C32.14526978 36.20281616 32.14526978 36.20281616 31.58984375 37.50390625 C31.21802979 38.37845459 30.84621582 39.25300293 30.46313477 40.15405273 C29.5234375 42.1953125 29.5234375 42.1953125 28.5234375 43.1953125 C25.5534375 43.1953125 22.5834375 43.1953125 19.5234375 43.1953125 C16.2234375 35.9353125 12.9234375 28.6753125 9.5234375 21.1953125 C9.1934375 30.1053125 8.8634375 39.0153125 8.5234375 48.1953125 C11.1634375 48.1953125 13.8034375 48.1953125 16.5234375 48.1953125 C18.5234375 50.1953125 18.5234375 50.1953125 18.8359375 52.6953125 C18.7328125 53.5203125 18.6296875 54.3453125 18.5234375 55.1953125 C15.3587861 57.3050801 14.54949977 57.45083855 10.92578125 57.4609375 C9.60030273 57.46480469 9.60030273 57.46480469 8.24804688 57.46875 C7.32830078 57.46101563 6.40855469 57.45328125 5.4609375 57.4453125 C4.53732422 57.45304687 3.61371094 57.46078125 2.66210938 57.46875 C1.33856445 57.46488281 1.33856445 57.46488281 -0.01171875 57.4609375 C-0.8200415 57.45868164 -1.62836426 57.45642578 -2.46118164 57.45410156 C-4.4765625 57.1953125 -4.4765625 57.1953125 -6.4765625 55.1953125 C-6.9140625 52.7578125 -6.9140625 52.7578125 -6.4765625 50.1953125 C-5.65712158 49.82043701 -4.83768066 49.44556152 -3.9934082 49.05932617 C-1.0590162 47.33294159 -1.0590162 47.33294159 -0.81713867 43.45825195 C-0.77603974 41.90882963 -0.76185293 40.35854204 -0.76953125 38.80859375 C-0.75440994 37.99158493 -0.73928864 37.17457611 -0.72370911 36.33280945 C-0.68073289 33.72419858 -0.67198508 31.11674253 -0.6640625 28.5078125 C-0.64092573 26.73890138 -0.6155621 24.97001787 -0.58789062 23.20117188 C-0.52494087 18.8657829 -0.49268309 14.53111832 -0.4765625 10.1953125 C-2.9515625 9.2053125 -2.9515625 9.2053125 -5.4765625 8.1953125 C-5.6015625 5.3203125 -5.6015625 5.3203125 -5.4765625 2.1953125 C-3.4765625 0.1953125 -3.4765625 0.1953125 0 0 Z " fill="#FF3434" transform="translate(473.4765625,441.8046875)"/>
<path d="M0 0 C4.50937969 3.40458167 6.98186604 7.59117476 9 12.8046875 C9.40373601 16.13550958 9.25 19.5119858 9.25 22.8671875 C-3.62 22.8671875 -16.49 22.8671875 -29.75 22.8671875 C-26.31119596 27.61041929 -26.31119596 27.61041929 -21.75 29.8671875 C-14.98080579 30.54212182 -8.54592416 29.80598072 -1.9453125 28.3203125 C0.85262821 27.74280161 3.40724565 27.58291206 6.25 27.8671875 C8.25 29.8671875 8.25 29.8671875 8.6875 32.3046875 C8.25 34.8671875 8.25 34.8671875 6.25 36.5546875 C-0.69522235 39.59322228 -7.2638738 40.23084488 -14.75 40.2421875 C-16.02617188 40.27892578 -16.02617188 40.27892578 -17.328125 40.31640625 C-24.28904613 40.34843503 -29.46555067 38.70145169 -34.7734375 34.12109375 C-35.21945312 33.56292969 -35.66546875 33.00476563 -36.125 32.4296875 C-36.58648438 31.87410156 -37.04796875 31.31851563 -37.5234375 30.74609375 C-41.56714333 24.55175456 -41.57562628 18.04579069 -40.75 10.8671875 C-38.16475306 3.43610559 -31.78197324 -1.16162558 -24.9375 -4.5078125 C-15.47045938 -6.36409497 -8.09124257 -5.2376347 0 0 Z " fill="#FF3737" transform="translate(800.75,460.1328125)"/>
<path d="M0 0 C3.91849517 4.11441993 5.12837945 6.63493931 5.09765625 12.2265625 C5.09443359 13.2578125 5.09121094 14.2890625 5.08789062 15.3515625 C5.07532227 16.97191406 5.07532227 16.97191406 5.0625 18.625 C5.05798828 19.71296875 5.05347656 20.8009375 5.04882812 21.921875 C5.03701776 24.61463789 5.02054778 27.30729188 5 30 C5.969375 30.144375 6.93875 30.28875 7.9375 30.4375 C11 31 11 31 12 32 C12.25 34.9375 12.25 34.9375 12 38 C8.2632157 40.49118953 6.25548181 40.2065226 1.8125 40.125 C0.54019531 40.10695313 -0.73210937 40.08890625 -2.04296875 40.0703125 C-3.01878906 40.04710937 -3.99460937 40.02390625 -5 40 C-5 39.34 -5 38.68 -5 38 C-5.9796875 38.4846875 -6.959375 38.969375 -7.96875 39.46875 C-12.17177187 41.2615883 -15.96889208 41.53832657 -20.5 41.5 C-21.62547241 41.49468262 -21.62547241 41.49468262 -22.77368164 41.48925781 C-26.83662921 41.36650209 -29.99076936 41.11097406 -33.4375 38.75 C-37.42213851 34.47380257 -38.50597603 32.04700446 -38.3046875 26.01953125 C-37.66167513 21.75751333 -35.45063193 19.07994731 -32.05859375 16.5546875 C-27.76326697 13.78606066 -24.19682589 11.86318176 -18.98828125 11.90234375 C-17.85229492 11.90717773 -17.85229492 11.90717773 -16.69335938 11.91210938 C-15.51483398 11.92467773 -15.51483398 11.92467773 -14.3125 11.9375 C-13.11657227 11.94426758 -13.11657227 11.94426758 -11.89648438 11.95117188 C-9.93095743 11.9629415 -7.96546915 11.98087652 -6 12 C-6.34786708 10.02463255 -6.34786708 10.02463255 -7 8 C-12.53007038 5.23496481 -21.19231096 6.80481127 -27.1875 7.625 C-28.445625 7.74875 -29.70375 7.8725 -31 8 C-33 6 -33 6 -33.125 2.875 C-33.08375 1.92625 -33.0425 0.9775 -33 0 C-22.37406659 -4.79208761 -10.29693704 -6.78463436 0 0 Z " fill="#080808" transform="translate(272,344)"/>
<path d="M0 0 C2.54782781 2.2225732 4.48933666 3.97867331 6 7 C6.084915 8.8863912 6.107193 10.77578515 6.09765625 12.6640625 C6.09443359 13.78554688 6.09121094 14.90703125 6.08789062 16.0625 C6.07532227 17.8259375 6.07532227 17.8259375 6.0625 19.625 C6.05798828 20.80835938 6.05347656 21.99171875 6.04882812 23.2109375 C6.03701467 26.14067507 6.02054258 29.07031272 6 32 C6.94875 31.95875 7.8975 31.9175 8.875 31.875 C12 32 12 32 14 34 C14.3125 36.5 14.3125 36.5 14 39 C10.37155969 41.4189602 7.74261832 41.22920237 3.5625 41.125 C2.24378906 41.10695313 0.92507813 41.08890625 -0.43359375 41.0703125 C-2.19896484 41.03550781 -2.19896484 41.03550781 -4 41 C-7.66489044 40.8270877 -7.66489044 40.8270877 -9.7890625 41.48046875 C-12.99139795 42.232961 -16.08971023 42.25020409 -19.375 42.3125 C-20.66148437 42.34988281 -21.94796875 42.38726562 -23.2734375 42.42578125 C-28.86991741 41.78635116 -31.84949254 39.39271955 -35.375 35.125 C-37.21019695 31.59577511 -37.651794 29.91076402 -37 26 C-33.38016883 19.29660894 -28.26371798 15.24818783 -21 13 C-18.1702055 12.67079868 -15.40612402 12.71103492 -12.5625 12.8125 C-11.83095703 12.82603516 -11.09941406 12.83957031 -10.34570312 12.85351562 C-8.56347578 12.88846126 -6.78163427 12.94225195 -5 13 C-5 11.68 -5 10.36 -5 9 C-7.70238298 7.64880851 -9.86014446 7.86762872 -12.875 7.875 C-13.92429687 7.87242187 -14.97359375 7.86984375 -16.0546875 7.8671875 C-18.58031264 7.98107511 -20.58481526 8.33991773 -23 9 C-26.625 9.1875 -26.625 9.1875 -30 9 C-32 7 -32 7 -32.375 4.5625 C-32 2 -32 2 -30.5 0.3125 C-21.17625351 -4.58246691 -9.34122563 -4.75255339 0 0 Z " fill="#FF3636" transform="translate(567,458)"/>
<path d="M0 0 C2.43407193 0.48785237 4.43054581 -0.13838903 6.83203125 -0.6328125 C8.44140625 0.40625 8.44140625 0.40625 9.83203125 2.3671875 C10.23046875 5.58203125 10.23046875 5.58203125 10.20703125 9.3046875 C10.21863281 11.14353516 10.21863281 11.14353516 10.23046875 13.01953125 C9.81510074 16.50943694 9.34813094 17.95866452 6.83203125 20.3671875 C4.14453125 20.6171875 4.14453125 20.6171875 1.83203125 20.3671875 C1.50332031 19.55314453 1.50332031 19.55314453 1.16796875 18.72265625 C-0.39299152 15.2009776 -1.62489429 12.80164707 -4.66796875 10.3671875 C-11.09816824 8.52998764 -17.46411507 8.20839307 -23.66796875 10.8671875 C-28.8636164 16.06283515 -30.41077571 20.56521165 -30.60546875 27.9296875 C-30.37655825 34.52230999 -29.66803253 38.93291487 -24.79296875 43.6796875 C-18.74103902 47.57021376 -13.24198037 48.19709948 -6.16796875 47.3671875 C-2.22453004 46.01878588 0.88466858 44.31455017 3.83203125 41.3671875 C6.33203125 41.1171875 6.33203125 41.1171875 8.83203125 41.3671875 C10.83203125 43.3671875 10.83203125 43.3671875 11.18359375 45.76171875 C10.73468777 49.08861085 9.75623912 49.93034761 7.20703125 52.0546875 C6.19769531 52.92673828 6.19769531 52.92673828 5.16796875 53.81640625 C-2.42873583 58.85970344 -12.40197001 58.35376669 -21.16796875 57.3671875 C-28.05328724 55.47710007 -33.420716 51.46085085 -37.16796875 45.3671875 C-40.14558017 39.67616519 -40.71425996 34.93746427 -40.66796875 28.5546875 C-40.66369873 27.669021 -40.65942871 26.78335449 -40.6550293 25.87084961 C-40.43360845 17.37157516 -38.2124837 11.95815385 -32.73046875 5.4921875 C-22.7172779 -2.81143418 -12.40055906 -3.35896405 0 0 Z " fill="#070707" transform="translate(215.16796875,327.6328125)"/>
<path d="M0 0 C4.30399139 1.97533933 7.1214142 4.22159365 9.71875 8.2734375 C10.73848129 11.33263138 10.83408602 13.39761775 10.81640625 16.59765625 C10.81318359 17.62568359 10.80996094 18.65371094 10.80664062 19.71289062 C10.79407227 21.32067383 10.79407227 21.32067383 10.78125 22.9609375 C10.77673828 24.04439453 10.77222656 25.12785156 10.76757812 26.24414062 C10.75578743 28.92062835 10.73933063 31.59700527 10.71875 34.2734375 C12.36875 34.6034375 14.01875 34.9334375 15.71875 35.2734375 C16.40625 37.5859375 16.40625 37.5859375 16.71875 40.2734375 C15.73828125 41.91796875 15.73828125 41.91796875 13.71875 43.2734375 C10.95756175 43.57178623 8.47326984 43.69254903 5.71875 43.6484375 C4.63207031 43.66583984 4.63207031 43.66583984 3.5234375 43.68359375 C-1.7221258 43.65455927 -1.7221258 43.65455927 -4.28125 41.91015625 C-5.28125 40.2734375 -5.28125 40.2734375 -5.28125 37.7109375 C-4.28125 35.2734375 -4.28125 35.2734375 -1.71875 34.12109375 C-0.914375 33.84136719 -0.11 33.56164062 0.71875 33.2734375 C0.6381249 29.81413057 0.52526536 26.35661975 0.40625 22.8984375 C0.37241211 21.42117188 0.37241211 21.42117188 0.33789062 19.9140625 C0.30244141 18.97304688 0.26699219 18.03203125 0.23046875 17.0625 C0.20428467 16.19318848 0.17810059 15.32387695 0.15112305 14.42822266 C-0.09470218 11.88743723 -0.09470218 11.88743723 -3.28125 10.2734375 C-5.35592229 9.84538837 -5.35592229 9.84538837 -7.59375 9.8359375 C-8.33238281 9.79597656 -9.07101562 9.75601562 -9.83203125 9.71484375 C-13.53548281 10.5594906 -16.0926865 12.22127633 -18.28125 15.2734375 C-19.13384644 18.54920276 -19.16630832 21.71388688 -19.15625 25.0859375 C-19.176875 25.96958984 -19.1975 26.85324219 -19.21875 27.76367188 C-19.26565843 29.9331867 -19.27699089 32.1034198 -19.28125 34.2734375 C-18.4975 34.2321875 -17.71375 34.1909375 -16.90625 34.1484375 C-14.28125 34.2734375 -14.28125 34.2734375 -12.28125 36.2734375 C-12.53125 39.3359375 -12.53125 39.3359375 -13.28125 42.2734375 C-16.68816491 43.97689495 -20.46392517 43.50006116 -24.21875 43.5234375 C-25.04310547 43.5440625 -25.86746094 43.5646875 -26.71679688 43.5859375 C-27.51021484 43.59109375 -28.30363281 43.59625 -29.12109375 43.6015625 C-30.20958618 43.61558105 -30.20958618 43.61558105 -31.32006836 43.62988281 C-33.85313064 43.16949803 -34.75793713 42.31829138 -36.28125 40.2734375 C-35.86019737 35.85238487 -35.86019737 35.85238487 -34.28125 34.2734375 C-32.63125 34.2734375 -30.98125 34.2734375 -29.28125 34.2734375 C-29.28125 26.3534375 -29.28125 18.4334375 -29.28125 10.2734375 C-30.60125 9.9434375 -31.92125 9.6134375 -33.28125 9.2734375 C-33.94125 8.6134375 -34.60125 7.9534375 -35.28125 7.2734375 C-35.09375 4.7734375 -35.09375 4.7734375 -34.28125 2.2734375 C-30.75445901 -0.07775649 -29.25245515 0.05900298 -25.09375 0.1484375 C-24.00707031 0.16648437 -22.92039062 0.18453125 -21.80078125 0.203125 C-20.55361328 0.23792969 -20.55361328 0.23792969 -19.28125 0.2734375 C-18.95125 0.9334375 -18.62125 1.5934375 -18.28125 2.2734375 C-17.4975 1.7784375 -16.71375 1.2834375 -15.90625 0.7734375 C-10.57839215 -1.43119334 -5.54516746 -1.76609786 0 0 Z " fill="#FF3838" transform="translate(622.28125,455.7265625)"/>
<path d="M0 0 C2.55985218 0.2724167 5.11929936 0.44564981 7.6875 0.62109375 C10 1 10 1 12 3 C12.265625 5.3125 12.265625 5.3125 12.25 8 C12.25773437 9.3303125 12.25773437 9.3303125 12.265625 10.6875 C12 13 12 13 10 15 C7.125 15.375 7.125 15.375 4 15 C1.75 13.0625 1.75 13.0625 0 11 C-2.85195222 9.57402389 -5.32461175 9.8679748 -8.5 9.875 C-10.24796875 9.87113281 -10.24796875 9.87113281 -12.03125 9.8671875 C-14.92930786 9.7951569 -14.92930786 9.7951569 -17 11 C-17 11.99 -17 12.98 -17 14 C-16.42556152 14.10546143 -15.85112305 14.21092285 -15.25927734 14.31958008 C-12.62935407 14.80788842 -10.00226013 15.31006847 -7.375 15.8125 C-6.47136719 15.97814453 -5.56773437 16.14378906 -4.63671875 16.31445312 C2.93175667 17.7784283 8.43302978 19.40326524 13 26 C14.47896861 28.95793723 14.4355582 30.70220224 14 34 C11.38919875 38.54722579 7.75243777 41.96743232 2.67578125 43.57421875 C-5.70471439 44.90775747 -14.68761822 44.58503932 -23 43 C-24.093125 42.855625 -25.18625 42.71125 -26.3125 42.5625 C-27.6428125 42.2840625 -27.6428125 42.2840625 -29 42 C-30.23184766 39.53630468 -30.16732342 37.8105499 -30.1875 35.0625 C-30.20167969 34.18722656 -30.21585937 33.31195313 -30.23046875 32.41015625 C-30 30 -30 30 -28 27 C-25.6875 26.5 -25.6875 26.5 -23 27 C-20.4375 29.375 -20.4375 29.375 -18 32 C-14.69006789 34.13403517 -11.95822184 34.26965055 -8.0625 34.25 C-7.04285156 34.25515625 -6.02320313 34.2603125 -4.97265625 34.265625 C-1.94667796 33.99523535 0.25825647 33.27241136 3 32 C3 31.01 3 30.02 3 29 C-2.24446637 26.53636963 -7.72592746 26.01162196 -13.40625 25.23242188 C-17.88222808 24.55729518 -21.31948645 23.83224281 -25 21 C-27.59868856 16.96755224 -28.8764191 13.77161508 -28 9 C-25.41983239 4.71801971 -21.97999337 1.1794514 -17.203125 -0.57421875 C-12.03930851 -1.57219038 -4.79968405 -2.39984202 0 0 Z " fill="#060606" transform="translate(324,341)"/>
<path d="M0 0 C2.51012963 2.51012963 2.29721609 3.46805237 2.3125 6.9375 C2.32925781 7.81277344 2.34601563 8.68804687 2.36328125 9.58984375 C2 12 2 12 0.6328125 13.8203125 C-1 15 -1 15 -3.4375 14.9375 C-6.45568055 13.8332876 -7.86180472 12.3593879 -10 10 C-12.70238298 8.64880851 -14.86014446 8.86762872 -17.875 8.875 C-18.92429687 8.87242187 -19.97359375 8.86984375 -21.0546875 8.8671875 C-23.55676685 8.98001336 -25.61756923 9.27491238 -28 10 C-26.38061194 13.09668683 -26.38061194 13.09668683 -24.0480957 13.64428711 C-23.26523193 13.7706958 -22.48236816 13.89710449 -21.67578125 14.02734375 C-20.81146484 14.18009766 -19.94714844 14.33285156 -19.05664062 14.49023438 C-17.24685942 14.78520939 -15.43696582 15.07949572 -13.62695312 15.37304688 C-7.07315725 16.53245266 -1.57140132 18.01385654 2.9375 23.25 C4.37065243 26.95933569 4.68566883 30.07733648 4 34 C1.75416184 38.29638604 -1.58136634 40.4663879 -5.96484375 42.28125 C-14.54460332 44.31300774 -24.40005328 43.67647771 -33 42 C-33.928125 41.835 -34.85625 41.67 -35.8125 41.5 C-38 41 -38 41 -39 40 C-39.12514928 38.02380553 -39.1757276 36.04261827 -39.1875 34.0625 C-39.20167969 32.98097656 -39.21585937 31.89945312 -39.23046875 30.78515625 C-39 28 -39 28 -37 26 C-34.625 25.5625 -34.625 25.5625 -32 26 C-30.62517293 27.63260714 -29.29352333 29.30225062 -28 31 C-24.25266105 32.9160307 -21.11653695 33.27113293 -16.9375 33.25 C-15.40416016 33.25773437 -15.40416016 33.25773437 -13.83984375 33.265625 C-11.0390422 33.00365182 -9.38409096 32.44074562 -7 31 C-7.33 29.68 -7.66 28.36 -8 27 C-13.06005915 25.81931953 -18.04077988 24.84464126 -23.1875 24.125 C-28.16954265 23.318988 -31.19192251 22.30701466 -35 19 C-37.69915997 14.95126004 -37.64528168 11.75161966 -37 7 C-34.70137988 2.50269976 -31.16593286 0.56308988 -26.61328125 -1.27734375 C-18.21715026 -3.5991438 -8.31550236 -2.19399248 0 0 Z " fill="#060606" transform="translate(391,342)"/>
<path d="M0 0 C2.4375 0.875 2.4375 0.875 4.4375 3.875 C4.6328125 6.57421875 4.6328125 6.57421875 4.5625 9.5625 C4.54445313 10.55636719 4.52640625 11.55023438 4.5078125 12.57421875 C4.48460937 13.33347656 4.46140625 14.09273438 4.4375 14.875 C5.31486816 14.85143433 5.31486816 14.85143433 6.20996094 14.82739258 C8.86904164 14.76489733 11.52796764 14.72596431 14.1875 14.6875 C15.56808594 14.64979492 15.56808594 14.64979492 16.9765625 14.61132812 C17.86601563 14.60166016 18.75546875 14.59199219 19.671875 14.58203125 C20.48881836 14.5663208 21.30576172 14.55061035 22.14746094 14.53442383 C24.94990627 14.95120541 26.32597021 16.03695148 28.4375 17.875 C28.0625 20.8125 28.0625 20.8125 27.4375 23.875 C24.98474859 25.1013757 23.3869219 24.98915314 20.6484375 24.97265625 C19.80071777 24.97015869 18.95299805 24.96766113 18.07958984 24.96508789 C17.0014502 24.95598389 15.92331055 24.94687988 14.8125 24.9375 C11.38875 24.916875 7.965 24.89625 4.4375 24.875 C4.7675 32.465 5.0975 40.055 5.4375 47.875 C9.8130979 50.06279895 16.123716 49.55297419 20.73046875 48.203125 C21.39691406 47.92984375 22.06335938 47.6565625 22.75 47.375 C26.36832629 45.90313846 28.5900558 45.41697093 32.4375 45.875 C34.4375 47.875 34.4375 47.875 34.5625 50.75 C33.28960474 54.28582016 32.81967312 54.56339244 29.625 56.1875 C23.91134265 58.72809436 18.74232008 59.11262334 12.5625 59.1875 C11.77230469 59.21650391 10.98210938 59.24550781 10.16796875 59.27539062 C4.78775293 59.33357932 1.59141298 58.61352168 -2.5625 54.875 C-6.69893987 49.37709041 -5.90079665 43.06545395 -5.75 36.5 C-5.72969727 34.82357422 -5.72969727 34.82357422 -5.70898438 33.11328125 C-5.67377164 30.36668789 -5.62452096 27.62109711 -5.5625 24.875 C-7.233125 24.91173828 -7.233125 24.91173828 -8.9375 24.94921875 C-12.5625 24.875 -12.5625 24.875 -14.5625 23.6875 C-15.5625 21.875 -15.5625 21.875 -15.4375 19.3125 C-14.5625 16.875 -14.5625 16.875 -11.5625 14.875 C-8.375 14.75 -8.375 14.75 -5.5625 14.875 C-5.59730469 14.04355469 -5.63210938 13.21210938 -5.66796875 12.35546875 C-5.69503906 11.26878906 -5.72210937 10.18210937 -5.75 9.0625 C-5.80220703 7.44408203 -5.80220703 7.44408203 -5.85546875 5.79296875 C-5.5625 2.875 -5.5625 2.875 -4.2109375 0.98046875 C-2.5625 -0.125 -2.5625 -0.125 0 0 Z " fill="#FF3838" transform="translate(663.5625,441.125)"/>
<path d="M0 0 C0 16.83 0 33.66 0 51 C4.62 51 9.24 51 14 51 C14.99 51.66 15.98 52.32 17 53 C17.375 56 17.375 56 17 59 C13.10375984 61.59749344 9.80199379 61.30575629 5.28125 61.30078125 C4.42696411 61.30506638 3.57267822 61.3093515 2.69250488 61.31376648 C0.88697191 61.31950746 -0.9185842 61.32001174 -2.72412109 61.31567383 C-5.48965773 61.31251182 -8.25412674 61.33598227 -11.01953125 61.36132812 C-12.77343615 61.3636009 -14.52734393 61.36430471 -16.28125 61.36328125 C-17.10943237 61.372491 -17.93761475 61.38170074 -18.79089355 61.39118958 C-24.55663317 61.34460299 -24.55663317 61.34460299 -26.75378418 59.6368866 C-28 58 -28 58 -27.8125 55.4375 C-27 53 -27 53 -25 51 C-20.05 51 -15.1 51 -10 51 C-10 37.47 -10 23.94 -10 10 C-13.63 10 -17.26 10 -21 10 C-24 7 -24 7 -24.375 4.4375 C-24.25125 3.633125 -24.1275 2.82875 -24 2 C-17.32052512 -2.45298325 -8.02772972 0 0 0 Z " fill="#FF3939" transform="translate(733,438)"/>
<path d="M0 0 C3.13645767 3.81433723 5.29564143 8.10974477 7.625 12.4375 C11.93907976 20.34798417 16.68094946 27.72806133 22 35 C20.48705075 38.70296419 18.3194126 40.7200164 15.3125 43.3125 C11.47635086 46.65044796 7.93825416 50.07483826 4.5703125 53.8828125 C3 55 3 55 0.90625 54.75390625 C-1.44883803 53.82248824 -2.46329453 53.02565721 -4 51 C-6.02407587 46.09180138 -6.35009621 41.78444562 -6.3125 36.5625 C-6.30903564 35.77407715 -6.30557129 34.9856543 -6.30200195 34.17333984 C-6.16276875 26.52551374 -4.83886705 19.43001686 -3 12 C-2.71382813 10.81277344 -2.42765625 9.62554688 -2.1328125 8.40234375 C-1.44337798 5.59536034 -0.73403746 2.79558949 0 0 Z " fill="#050505" transform="translate(416,584)"/>
<path d="M0 0 C0.67611328 0.00515625 1.35222656 0.0103125 2.04882812 0.015625 C7.00144527 0.09447264 7.00144527 0.09447264 9.3125 1.25 C9.12890625 3.60546875 9.12890625 3.60546875 8.3125 6.25 C2.57495403 9.76916265 -4.07196919 10.95880687 -10.6875 10.25 C-11.6775 9.59 -12.6675 8.93 -13.6875 8.25 C-13.5 5.9375 -13.5 5.9375 -12.6875 3.25 C-8.56348992 -0.04142691 -5.1669204 -0.10121294 0 0 Z " fill="#F7F7F7" transform="translate(257.6875,365.75)"/>
<path d="M0 0 C1.87365234 -0.00386719 1.87365234 -0.00386719 3.78515625 -0.0078125 C6.9375 0.125 6.9375 0.125 8.9375 1.125 C8.71875 3.48046875 8.71875 3.48046875 7.9375 6.125 C2.55572098 9.85166841 -4.62906487 11.25644258 -11.0625 10.125 C-12.0525 9.465 -13.0425 8.805 -14.0625 8.125 C-13.5001049 4.86310844 -12.6484495 3.21365152 -10.0625 1.125 C-6.54512679 -0.04745774 -3.7049868 -0.00766285 0 0 Z " fill="#FFF7F7" transform="translate(554.0625,480.875)"/>
<path d="M0 0 C3.64238503 1.39072883 6.57110945 2.89641763 9 6 C9 6.66 9 7.32 9 8 C0.09 8 -8.82 8 -18 8 C-14.0447372 0.0894744 -8.23836091 -1.12523954 0 0 Z " fill="#FFFBFB" transform="translate(789,465)"/>
<path d="M0 0 C0.66 0.33 1.32 0.66 2 1 C-1.63 4.63 -5.26 8.26 -9 12 C-9 7.8407692 -6.75316432 5.85455565 -4 3 C-1.6875 1.125 -1.6875 1.125 0 0 Z " fill="#D0BBF9" transform="translate(81,579)"/>
<path d="M0 0 C0.66 0.33 1.32 0.66 2 1 C-0.97 3.97 -3.94 6.94 -7 10 C-7.66 9.67 -8.32 9.34 -9 9 C-8.06725891 7.87105124 -7.12859878 6.74699124 -6.1875 5.625 C-5.66542969 4.99851562 -5.14335938 4.37203125 -4.60546875 3.7265625 C-3 2 -3 2 0 0 Z " fill="#CFBBF9" transform="translate(75,663)"/>
</svg>
