<svg xmlns="http://www.w3.org/2000/svg" version="1.1" xmlns:xlink="http://www.w3.org/1999/xlink" xmlns:svgjs="http://svgjs.dev/svgjs" viewBox="0 0 9.328521872603309 9.944907040748015"><g transform="matrix(1,0,0,1,0.8025666003641545,7.741217393508861)"><rect width="9.944907040748015" height="9.944907040748015" x="-1.1107591844365077" y="-7.741217393508861" fill="#fffef5"></rect><g><path d=" M 0.1494140625 0.181640625 Q 0.1494140625 0.14501953125 0.1622314453125 0.1175537109375 Q 0.175048828125 0.090087890625 0.1951904296875 0.0699462890625 Q 0.21533203125 0.0498046875 0.2413330078125 0.0362548828125 Q 0.267333984375 0.022705078125 0.293701171875 0.0146484375 Q 0.320068359375 0.006591796875 0.3446044921875 0.0032958984375 Q 0.369140625 0 0.387451171875 0 Q 0.4072265625 0 0.4324951171875 0.0032958984375 Q 0.457763671875 0.006591796875 0.484130859375 0.0146484375 Q 0.510498046875 0.022705078125 0.5361328125 0.0362548828125 Q 0.561767578125 0.0498046875 0.5819091796875 0.0699462890625 Q 0.60205078125 0.090087890625 0.6141357421875 0.1175537109375 Q 0.626220703125 0.14501953125 0.626220703125 0.181640625 Q 0.626220703125 0.217529296875 0.6141357421875 0.245361328125 Q 0.60205078125 0.273193359375 0.5819091796875 0.29296875 Q 0.561767578125 0.312744140625 0.5361328125 0.3262939453125 Q 0.510498046875 0.33984375 0.484130859375 0.347900390625 Q 0.457763671875 0.35595703125 0.4324951171875 0.3592529296875 Q 0.4072265625 0.362548828125 0.387451171875 0.362548828125 Q 0.369140625 0.362548828125 0.3446044921875 0.3592529296875 Q 0.320068359375 0.35595703125 0.293701171875 0.347900390625 Q 0.267333984375 0.33984375 0.2413330078125 0.3262939453125 Q 0.21533203125 0.312744140625 0.1951904296875 0.29296875 Q 0.175048828125 0.273193359375 0.1622314453125 0.2457275390625 Q 0.1494140625 0.21826171875 0.1494140625 0.181640625 M 0.603515625 1.103759765625 Q 0.603515625 1.133056640625 0.611572265625 1.149169921875 Q 0.61962890625 1.165283203125 0.6317138671875 1.1737060546875 Q 0.643798828125 1.18212890625 0.65771484375 1.18505859375 Q 0.671630859375 1.18798828125 0.6837158203125 1.191650390625 Q 0.69580078125 1.1953125 0.703857421875 1.2022705078125 Q 0.7119140625 1.209228515625 0.7119140625 1.225341796875 Q 0.7119140625 1.308837890625 0.62548828125 1.3458251953125 Q 0.5390625 1.3828125 0.375732421875 1.3828125 Q 0.296630859375 1.3828125 0.23583984375 1.3740234375 Q 0.175048828125 1.365234375 0.13330078125 1.3458251953125 Q 0.091552734375 1.326416015625 0.0699462890625 1.2967529296875 Q 0.04833984375 1.26708984375 0.04833984375 1.225341796875 Q 0.04833984375 1.209228515625 0.056396484375 1.2022705078125 Q 0.064453125 1.1953125 0.076171875 1.191650390625 Q 0.087890625 1.18798828125 0.101806640625 1.18505859375 Q 0.11572265625 1.18212890625 0.12744140625 1.1737060546875 Q 0.13916015625 1.165283203125 0.147216796875 1.1495361328125 Q 0.1552734375 1.1337890625 0.1552734375 1.103759765625 L 0.1552734375 0.712646484375 Q 0.1552734375 0.683349609375 0.147216796875 0.667236328125 Q 0.13916015625 0.651123046875 0.12744140625 0.6427001953125 Q 0.11572265625 0.63427734375 0.101806640625 0.63134765625 Q 0.087890625 0.62841796875 0.076171875 0.624755859375 Q 0.064453125 0.62109375 0.056396484375 0.6141357421875 Q 0.04833984375 0.607177734375 0.04833984375 0.591064453125 Q 0.04833984375 0.54931640625 0.0699462890625 0.5196533203125 Q 0.091552734375 0.489990234375 0.13330078125 0.4705810546875 Q 0.175048828125 0.451171875 0.23583984375 0.4423828125 Q 0.296630859375 0.43359375 0.375732421875 0.43359375 Q 0.454833984375 0.43359375 0.500244140625 0.441650390625 Q 0.545654296875 0.44970703125 0.5687255859375 0.4691162109375 Q 0.591796875 0.488525390625 0.59765625 0.521484375 Q 0.603515625 0.554443359375 0.603515625 0.604248046875 L 0.603515625 1.103759765625 M 1.907958984375 0.50244140625 Q 1.92041015625 0.494384765625 1.9405517578125 0.4793701171875 Q 1.960693359375 0.46435546875 2.000244140625 0.4493408203125 Q 2.039794921875 0.434326171875 2.10498046875 0.42333984375 Q 2.170166015625 0.412353515625 2.272705078125 0.412353515625 Q 2.349609375 0.412353515625 2.40673828125 0.4306640625 Q 2.4638671875 0.448974609375 2.5045166015625 0.48046875 Q 2.545166015625 0.511962890625 2.571533203125 0.5548095703125 Q 2.597900390625 0.59765625 2.61328125 0.6470947265625 Q 2.628662109375 0.696533203125 2.634521484375 0.75 Q 2.640380859375 0.803466796875 2.640380859375 0.856201171875 L 2.640380859375 0.863525390625 Q 2.6396484375 0.95068359375 2.6392822265625 0.9979248046875 Q 2.638916015625 1.045166015625 2.638916015625 1.067138671875 Q 2.638916015625 1.089111328125 2.638916015625 1.0931396484375 Q 2.638916015625 1.09716796875 2.638916015625 1.09716796875 Q 2.638916015625 1.1279296875 2.64697265625 1.1451416015625 Q 2.655029296875 1.162353515625 2.6671142578125 1.1715087890625 Q 2.67919921875 1.1806640625 2.6934814453125 1.1839599609375 Q 2.707763671875 1.187255859375 2.7198486328125 1.1912841796875 Q 2.73193359375 1.1953125 2.739990234375 1.2022705078125 Q 2.748046875 1.209228515625 2.748046875 1.225341796875 Q 2.748046875 1.26708984375 2.7271728515625 1.2967529296875 Q 2.706298828125 1.326416015625 2.666015625 1.3458251953125 Q 2.625732421875 1.365234375 2.5667724609375 1.3740234375 Q 2.5078125 1.3828125 2.431640625 1.3828125 Q 2.357666015625 1.3828125 2.3001708984375 1.3740234375 Q 2.24267578125 1.365234375 2.203125 1.3458251953125 Q 2.16357421875 1.326416015625 2.14306640625 1.2967529296875 Q 2.12255859375 1.26708984375 2.12255859375 1.225341796875 Q 2.12255859375 1.209228515625 2.1280517578125 1.2022705078125 Q 2.133544921875 1.1953125 2.1416015625 1.191650390625 Q 2.149658203125 1.18798828125 2.1591796875 1.18505859375 Q 2.168701171875 1.18212890625 2.1767578125 1.1737060546875 Q 2.184814453125 1.165283203125 2.1903076171875 1.1495361328125 Q 2.19580078125 1.1337890625 2.19580078125 1.103759765625 L 2.19580078125 0.788818359375 Q 2.19580078125 0.744140625 2.1903076171875 0.708984375 Q 2.184814453125 0.673828125 2.17236328125 0.649658203125 Q 2.159912109375 0.62548828125 2.1390380859375 0.6126708984375 Q 2.1181640625 0.599853515625 2.086669921875 0.599853515625 Q 2.038330078125 0.599853515625 2.0167236328125 0.6302490234375 Q 1.9951171875 0.66064453125 1.9951171875 0.708984375 L 1.9951171875 1.094970703125 Q 1.9951171875 1.12646484375 2.0009765625 1.14404296875 Q 2.0068359375 1.16162109375 2.0159912109375 1.1707763671875 Q 2.025146484375 1.179931640625 2.0357666015625 1.18359375 Q 2.04638671875 1.187255859375 2.0555419921875 1.1912841796875 Q 2.064697265625 1.1953125 2.070556640625 1.2022705078125 Q 2.076416015625 1.209228515625 2.076416015625 1.225341796875 Q 2.076416015625 1.26708984375 2.0599365234375 1.2967529296875 Q 2.04345703125 1.326416015625 2.0086669921875 1.3458251953125 Q 1.973876953125 1.365234375 1.9193115234375 1.3740234375 Q 1.86474609375 1.3828125 1.787841796875 1.3828125 Q 1.7138671875 1.3828125 1.6563720703125 1.3740234375 Q 1.598876953125 1.365234375 1.559326171875 1.3458251953125 Q 1.519775390625 1.326416015625 1.499267578125 1.2967529296875 Q 1.478759765625 1.26708984375 1.478759765625 1.225341796875 Q 1.478759765625 1.209228515625 1.4842529296875 1.2022705078125 Q 1.48974609375 1.1953125 1.497802734375 1.191650390625 Q 1.505859375 1.18798828125 1.5157470703125 1.18505859375 Q 1.525634765625 1.18212890625 1.53369140625 1.1737060546875 Q 1.541748046875 1.165283203125 1.5472412109375 1.1495361328125 Q 1.552734375 1.1337890625 1.552734375 1.103759765625 L 1.552734375 0.788818359375 Q 1.552734375 0.699462890625 1.5311279296875 0.650390625 Q 1.509521484375 0.601318359375 1.453857421875 0.601318359375 Q 1.431884765625 0.601318359375 1.412109375 0.609375 Q 1.392333984375 0.617431640625 1.376953125 0.6324462890625 Q 1.361572265625 0.6474609375 1.352783203125 0.66796875 Q 1.343994140625 0.6884765625 1.343994140625 0.712646484375 L 1.343994140625 1.100830078125 Q 1.343994140625 1.130859375 1.3502197265625 1.147705078125 Q 1.3564453125 1.16455078125 1.365966796875 1.1729736328125 Q 1.37548828125 1.181396484375 1.3868408203125 1.1846923828125 Q 1.398193359375 1.18798828125 1.40771484375 1.191650390625 Q 1.417236328125 1.1953125 1.4234619140625 1.2022705078125 Q 1.4296875 1.209228515625 1.4296875 1.225341796875 Q 1.4296875 1.308837890625 1.3465576171875 1.3458251953125 Q 1.263427734375 1.3828125 1.107421875 1.3828125 Q 1.031982421875 1.3828125 0.97265625 1.3740234375 Q 0.913330078125 1.365234375 0.8726806640625 1.3458251953125 Q 0.83203125 1.326416015625 0.8104248046875 1.2967529296875 Q 0.788818359375 1.26708984375 0.788818359375 1.225341796875 Q 0.788818359375 1.209228515625 0.796875 1.2022705078125 Q 0.804931640625 1.1953125 0.816650390625 1.191650390625 Q 0.828369140625 1.18798828125 0.84228515625 1.18505859375 Q 0.856201171875 1.18212890625 0.867919921875 1.1737060546875 Q 0.879638671875 1.165283203125 0.8876953125 1.1495361328125 Q 0.895751953125 1.1337890625 0.895751953125 1.103759765625 L 0.895751953125 0.712646484375 Q 0.895751953125 0.683349609375 0.8876953125 0.667236328125 Q 0.879638671875 0.651123046875 0.867919921875 0.6427001953125 Q 0.856201171875 0.63427734375 0.84228515625 0.63134765625 Q 0.828369140625 0.62841796875 0.816650390625 0.624755859375 Q 0.804931640625 0.62109375 0.796875 0.6141357421875 Q 0.788818359375 0.607177734375 0.788818359375 0.591064453125 Q 0.788818359375 0.54931640625 0.81005859375 0.5196533203125 Q 0.831298828125 0.489990234375 0.8719482421875 0.4705810546875 Q 0.91259765625 0.451171875 0.97119140625 0.4423828125 Q 1.02978515625 0.43359375 1.103759765625 0.43359375 Q 1.137451171875 0.43359375 1.16455078125 0.4368896484375 Q 1.191650390625 0.440185546875 1.2125244140625 0.4456787109375 Q 1.2333984375 0.451171875 1.248779296875 0.4581298828125 Q 1.26416015625 0.465087890625 1.275146484375 0.472412109375 Q 1.30078125 0.489990234375 1.31103515625 0.51123046875 Q 1.346923828125 0.484130859375 1.3974609375 0.462158203125 Q 1.440673828125 0.443115234375 1.5029296875 0.427734375 Q 1.565185546875 0.412353515625 1.648681640625 0.412353515625 Q 1.735107421875 0.412353515625 1.8017578125 0.4368896484375 Q 1.868408203125 0.46142578125 1.907958984375 0.50244140625 M 3.342041015625 0.599853515625 Q 3.318603515625 0.599853515625 3.298095703125 0.6104736328125 Q 3.277587890625 0.62109375 3.2625732421875 0.64306640625 Q 3.24755859375 0.6650390625 3.2391357421875 0.6990966796875 Q 3.230712890625 0.733154296875 3.230712890625 0.780029296875 L 3.46435546875 0.780029296875 Q 3.46435546875 0.728759765625 3.456298828125 0.6939697265625 Q 3.4482421875 0.6591796875 3.432861328125 0.6383056640625 Q 3.41748046875 0.617431640625 3.3944091796875 0.608642578125 Q 3.371337890625 0.599853515625 3.342041015625 0.599853515625 M 3.287841796875 0.412353515625 Q 3.385986328125 0.412353515625 3.4647216796875 0.441650390625 Q 3.54345703125 0.470947265625 3.5987548828125 0.522216796875 Q 3.654052734375 0.573486328125 3.6837158203125 0.6427001953125 Q 3.71337890625 0.7119140625 3.71337890625 0.791748046875 Q 3.71337890625 0.82470703125 3.7042236328125 0.843017578125 Q 3.695068359375 0.861328125 3.67822265625 0.8701171875 Q 3.661376953125 0.87890625 3.636474609375 0.881103515625 Q 3.611572265625 0.88330078125 3.580078125 0.88330078125 L 3.227783203125 0.88330078125 Q 3.227783203125 0.9638671875 3.2442626953125 1.0140380859375 Q 3.2607421875 1.064208984375 3.2900390625 1.092041015625 Q 3.3193359375 1.119873046875 3.3603515625 1.1297607421875 Q 3.4013671875 1.1396484375 3.451171875 1.1396484375 Q 3.4775390625 1.1396484375 3.5057373046875 1.134521484375 Q 3.533935546875 1.12939453125 3.5599365234375 1.121337890625 Q 3.5859375 1.11328125 3.60791015625 1.1044921875 Q 3.6298828125 1.095703125 3.64453125 1.087646484375 Q 3.65625 1.0810546875 3.667236328125 1.0810546875 Q 3.68408203125 1.0810546875 3.693603515625 1.0953369140625 Q 3.703125 1.109619140625 3.703125 1.127197265625 Q 3.703125 1.133056640625 3.702392578125 1.13818359375 Q 3.70166015625 1.143310546875 3.699462890625 1.1484375 Q 3.67822265625 1.20263671875 3.6416015625 1.248779296875 Q 3.60498046875 1.294921875 3.5526123046875 1.3289794921875 Q 3.500244140625 1.363037109375 3.431396484375 1.382080078125 Q 3.362548828125 1.401123046875 3.27685546875 1.401123046875 Q 3.19482421875 1.401123046875 3.1270751953125 1.3817138671875 Q 3.059326171875 1.3623046875 3.0047607421875 1.3275146484375 Q 2.9501953125 1.292724609375 2.9091796875 1.245849609375 Q 2.8681640625 1.198974609375 2.841064453125 1.1436767578125 Q 2.81396484375 1.08837890625 2.8004150390625 1.0279541015625 Q 2.786865234375 0.967529296875 2.786865234375 0.906005859375 Q 2.786865234375 0.84375 2.80078125 0.7825927734375 Q 2.814697265625 0.721435546875 2.842529296875 0.66650390625 Q 2.870361328125 0.611572265625 2.912109375 0.5650634765625 Q 2.953857421875 0.5185546875 3.009521484375 0.4844970703125 Q 3.065185546875 0.450439453125 3.134765625 0.431396484375 Q 3.204345703125 0.412353515625 3.287841796875 0.412353515625 M 4.33740234375 1.100830078125 Q 4.33740234375 1.130859375 4.345458984375 1.147705078125 Q 4.353515625 1.16455078125 4.3656005859375 1.1729736328125 Q 4.377685546875 1.181396484375 4.3916015625 1.1846923828125 Q 4.405517578125 1.18798828125 4.4176025390625 1.191650390625 Q 4.4296875 1.1953125 4.437744140625 1.2022705078125 Q 4.44580078125 1.209228515625 4.44580078125 1.225341796875 Q 4.44580078125 1.308837890625 4.359375 1.3458251953125 Q 4.27294921875 1.3828125 4.109619140625 1.3828125 Q 4.030517578125 1.3828125 3.9697265625 1.3740234375 Q 3.908935546875 1.365234375 3.8671875 1.3458251953125 Q 3.825439453125 1.326416015625 3.8038330078125 1.2967529296875 Q 3.7822265625 1.26708984375 3.7822265625 1.225341796875 Q 3.7822265625 1.209228515625 3.790283203125 1.2022705078125 Q 3.79833984375 1.1953125 3.81005859375 1.191650390625 Q 3.82177734375 1.18798828125 3.835693359375 1.18505859375 Q 3.849609375 1.18212890625 3.861328125 1.1737060546875 Q 3.873046875 1.165283203125 3.881103515625 1.1495361328125 Q 3.88916015625 1.1337890625 3.88916015625 1.103759765625 L 3.88916015625 0.712646484375 Q 3.88916015625 0.683349609375 3.881103515625 0.667236328125 Q 3.873046875 0.651123046875 3.861328125 0.6427001953125 Q 3.849609375 0.63427734375 3.835693359375 0.63134765625 Q 3.82177734375 0.62841796875 3.81005859375 0.624755859375 Q 3.79833984375 0.62109375 3.790283203125 0.6141357421875 Q 3.7822265625 0.607177734375 3.7822265625 0.591064453125 Q 3.7822265625 0.54931640625 3.8038330078125 0.5196533203125 Q 3.825439453125 0.489990234375 3.8671875 0.4705810546875 Q 3.908935546875 0.451171875 3.9697265625 0.4423828125 Q 4.030517578125 0.43359375 4.109619140625 0.43359375 Q 4.181396484375 0.43359375 4.223876953125 0.4456787109375 Q 4.266357421875 0.457763671875 4.289794921875 0.472412109375 Q 4.31689453125 0.489990234375 4.3271484375 0.51123046875 Q 4.365234375 0.484130859375 4.41796875 0.462158203125 Q 4.46337890625 0.443115234375 4.5289306640625 0.427734375 Q 4.594482421875 0.412353515625 4.682373046875 0.412353515625 Q 4.762939453125 0.412353515625 4.8211669921875 0.4324951171875 Q 4.87939453125 0.45263671875 4.9200439453125 0.4866943359375 Q 4.960693359375 0.520751953125 4.985595703125 0.5657958984375 Q 5.010498046875 0.61083984375 5.0240478515625 0.659912109375 Q 5.03759765625 0.708984375 5.0423583984375 0.7591552734375 Q 5.047119140625 0.809326171875 5.047119140625 0.854736328125 L 5.047119140625 1.09716796875 Q 5.047119140625 1.1279296875 5.05517578125 1.1451416015625 Q 5.063232421875 1.162353515625 5.07568359375 1.1715087890625 Q 5.088134765625 1.1806640625 5.1024169921875 1.1839599609375 Q 5.11669921875 1.187255859375 5.129150390625 1.1912841796875 Q 5.1416015625 1.1953125 5.149658203125 1.2022705078125 Q 5.15771484375 1.209228515625 5.15771484375 1.225341796875 Q 5.15771484375 1.308837890625 5.0716552734375 1.3458251953125 Q 4.985595703125 1.3828125 4.822265625 1.3828125 Q 4.7431640625 1.3828125 4.682373046875 1.3740234375 Q 4.62158203125 1.365234375 4.579833984375 1.3458251953125 Q 4.5380859375 1.326416015625 4.5164794921875 1.2967529296875 Q 4.494873046875 1.26708984375 4.494873046875 1.225341796875 Q 4.494873046875 1.209228515625 4.5029296875 1.2022705078125 Q 4.510986328125 1.1953125 4.5234375 1.191650390625 Q 4.535888671875 1.18798828125 4.5498046875 1.18505859375 Q 4.563720703125 1.18212890625 4.576171875 1.1737060546875 Q 4.588623046875 1.165283203125 4.5966796875 1.1495361328125 Q 4.604736328125 1.1337890625 4.604736328125 1.103759765625 L 4.604736328125 0.791015625 Q 4.604736328125 0.74560546875 4.5977783203125 0.7100830078125 Q 4.5908203125 0.674560546875 4.5743408203125 0.6500244140625 Q 4.557861328125 0.62548828125 4.53076171875 0.6126708984375 Q 4.503662109375 0.599853515625 4.46337890625 0.599853515625 Q 4.437744140625 0.599853515625 4.4150390625 0.6082763671875 Q 4.392333984375 0.61669921875 4.37548828125 0.6317138671875 Q 4.358642578125 0.646728515625 4.3487548828125 0.6676025390625 Q 4.3388671875 0.6884765625 4.3388671875 0.712646484375 L 4.33740234375 1.100830078125 M 5.726806640625 1.01806640625 Q 5.726806640625 1.042236328125 5.728271484375 1.0645751953125 Q 5.729736328125 1.0869140625 5.737060546875 1.1044921875 Q 5.744384765625 1.1220703125 5.759765625 1.13232421875 Q 5.775146484375 1.142578125 5.80224609375 1.142578125 Q 5.84033203125 1.142578125 5.8685302734375 1.1326904296875 Q 5.896728515625 1.122802734375 5.9267578125 1.106689453125 Q 5.9384765625 1.10009765625 5.94873046875 1.10009765625 Q 5.965576171875 1.10009765625 5.9754638671875 1.11474609375 Q 5.9853515625 1.12939453125 5.9853515625 1.147705078125 Q 5.9853515625 1.16015625 5.981689453125 1.168212890625 Q 5.96044921875 1.222412109375 5.9271240234375 1.265625 Q 5.893798828125 1.308837890625 5.8502197265625 1.3388671875 Q 5.806640625 1.368896484375 5.754638671875 1.385009765625 Q 5.70263671875 1.401123046875 5.643310546875 1.401123046875 Q 5.561279296875 1.401123046875 5.502685546875 1.3802490234375 Q 5.444091796875 1.359375 5.40380859375 1.3245849609375 Q 5.363525390625 1.289794921875 5.33935546875 1.2440185546875 Q 5.315185546875 1.1982421875 5.3023681640625 1.1480712890625 Q 5.28955078125 1.097900390625 5.2855224609375 1.0469970703125 Q 5.281494140625 0.99609375 5.281494140625 0.95068359375 L 5.281494140625 0.580078125 L 5.24560546875 0.580078125 Q 5.218505859375 0.580078125 5.203125 0.5643310546875 Q 5.187744140625 0.548583984375 5.187744140625 0.529541015625 Q 5.187744140625 0.5068359375 5.208251953125 0.491455078125 Q 5.2939453125 0.429931640625 5.364990234375 0.3724365234375 Q 5.43603515625 0.31494140625 5.4873046875 0.26953125 Q 5.54736328125 0.216796875 5.594970703125 0.170654296875 Q 5.614013671875 0.151611328125 5.6337890625 0.1424560546875 Q 5.653564453125 0.13330078125 5.671875 0.13330078125 Q 5.694580078125 0.13330078125 5.7099609375 0.148681640625 Q 5.725341796875 0.1640625 5.725341796875 0.1962890625 L 5.725341796875 0.43359375 L 5.904052734375 0.43359375 Q 5.912841796875 0.43359375 5.9249267578125 0.4346923828125 Q 5.93701171875 0.435791015625 5.947998046875 0.4423828125 Q 5.958984375 0.448974609375 5.9666748046875 0.4632568359375 Q 5.974365234375 0.4775390625 5.974365234375 0.50390625 Q 5.974365234375 0.532470703125 5.967041015625 0.5478515625 Q 5.959716796875 0.563232421875 5.94873046875 0.570556640625 Q 5.937744140625 0.577880859375 5.9256591796875 0.5789794921875 Q 5.91357421875 0.580078125 5.904052734375 0.580078125 L 5.725341796875 0.580078125 L 5.726806640625 1.01806640625 M 6.595458984375 1.100830078125 Q 6.595458984375 1.130859375 6.603515625 1.147705078125 Q 6.611572265625 1.16455078125 6.623291015625 1.1729736328125 Q 6.635009765625 1.181396484375 6.6492919921875 1.1846923828125 Q 6.66357421875 1.18798828125 6.67529296875 1.191650390625 Q 6.68701171875 1.1953125 6.695068359375 1.2022705078125 Q 6.703125 1.209228515625 6.703125 1.225341796875 Q 6.703125 1.308837890625 6.61669921875 1.3458251953125 Q 6.5302734375 1.3828125 6.366943359375 1.3828125 Q 6.28857421875 1.3828125 6.227783203125 1.3740234375 Q 6.1669921875 1.365234375 6.125244140625 1.3458251953125 Q 6.08349609375 1.326416015625 6.0618896484375 1.2967529296875 Q 6.040283203125 1.26708984375 6.040283203125 1.225341796875 Q 6.040283203125 1.209228515625 6.0479736328125 1.2022705078125 Q 6.0556640625 1.1953125 6.0677490234375 1.191650390625 Q 6.079833984375 1.18798828125 6.0933837890625 1.18505859375 Q 6.10693359375 1.18212890625 6.1190185546875 1.1737060546875 Q 6.131103515625 1.165283203125 6.1387939453125 1.1495361328125 Q 6.146484375 1.1337890625 6.146484375 1.103759765625 L 6.146484375 0.280517578125 Q 6.146484375 0.25048828125 6.1387939453125 0.2347412109375 Q 6.131103515625 0.218994140625 6.1190185546875 0.2105712890625 Q 6.10693359375 0.2021484375 6.0933837890625 0.19921875 Q 6.079833984375 0.1962890625 6.0677490234375 0.192626953125 Q 6.0556640625 0.18896484375 6.0479736328125 0.1820068359375 Q 6.040283203125 0.175048828125 6.040283203125 0.158935546875 Q 6.040283203125 0.1171875 6.0618896484375 0.0875244140625 Q 6.08349609375 0.057861328125 6.125244140625 0.0384521484375 Q 6.1669921875 0.01904296875 6.227783203125 0.01025390625 Q 6.28857421875 0.00146484375 6.366943359375 0.00146484375 Q 6.446044921875 0.00146484375 6.491455078125 0.009521484375 Q 6.536865234375 0.017578125 6.5599365234375 0.0369873046875 Q 6.5830078125 0.056396484375 6.5892333984375 0.08935546875 Q 6.595458984375 0.122314453125 6.595458984375 0.172119140625 L 6.595458984375 1.100830078125 M 7.326416015625 0.599853515625 Q 7.302978515625 0.599853515625 7.282470703125 0.6104736328125 Q 7.261962890625 0.62109375 7.2469482421875 0.64306640625 Q 7.23193359375 0.6650390625 7.2235107421875 0.6990966796875 Q 7.215087890625 0.733154296875 7.215087890625 0.780029296875 L 7.44873046875 0.780029296875 Q 7.44873046875 0.728759765625 7.440673828125 0.6939697265625 Q 7.4326171875 0.6591796875 7.417236328125 0.6383056640625 Q 7.40185546875 0.617431640625 7.3787841796875 0.608642578125 Q 7.355712890625 0.599853515625 7.326416015625 0.599853515625 M 7.272216796875 0.412353515625 Q 7.370361328125 0.412353515625 7.4490966796875 0.441650390625 Q 7.52783203125 0.470947265625 7.5831298828125 0.522216796875 Q 7.638427734375 0.573486328125 7.6680908203125 0.6427001953125 Q 7.69775390625 0.7119140625 7.69775390625 0.791748046875 Q 7.69775390625 0.82470703125 7.6885986328125 0.843017578125 Q 7.679443359375 0.861328125 7.66259765625 0.8701171875 Q 7.645751953125 0.87890625 7.620849609375 0.881103515625 Q 7.595947265625 0.88330078125 7.564453125 0.88330078125 L 7.212158203125 0.88330078125 Q 7.212158203125 0.9638671875 7.2286376953125 1.0140380859375 Q 7.2451171875 1.064208984375 7.2744140625 1.092041015625 Q 7.3037109375 1.119873046875 7.3447265625 1.1297607421875 Q 7.3857421875 1.1396484375 7.435546875 1.1396484375 Q 7.4619140625 1.1396484375 7.4901123046875 1.134521484375 Q 7.518310546875 1.12939453125 7.5443115234375 1.121337890625 Q 7.5703125 1.11328125 7.59228515625 1.1044921875 Q 7.6142578125 1.095703125 7.62890625 1.087646484375 Q 7.640625 1.0810546875 7.651611328125 1.0810546875 Q 7.66845703125 1.0810546875 7.677978515625 1.0953369140625 Q 7.6875 1.109619140625 7.6875 1.127197265625 Q 7.6875 1.133056640625 7.686767578125 1.13818359375 Q 7.68603515625 1.143310546875 7.683837890625 1.1484375 Q 7.66259765625 1.20263671875 7.6259765625 1.248779296875 Q 7.58935546875 1.294921875 7.5369873046875 1.3289794921875 Q 7.484619140625 1.363037109375 7.415771484375 1.382080078125 Q 7.346923828125 1.401123046875 7.26123046875 1.401123046875 Q 7.17919921875 1.401123046875 7.1114501953125 1.3817138671875 Q 7.043701171875 1.3623046875 6.9891357421875 1.3275146484375 Q 6.9345703125 1.292724609375 6.8935546875 1.245849609375 Q 6.8525390625 1.198974609375 6.825439453125 1.1436767578125 Q 6.79833984375 1.08837890625 6.7847900390625 1.0279541015625 Q 6.771240234375 0.967529296875 6.771240234375 0.906005859375 Q 6.771240234375 0.84375 6.78515625 0.7825927734375 Q 6.799072265625 0.721435546875 6.826904296875 0.66650390625 Q 6.854736328125 0.611572265625 6.896484375 0.5650634765625 Q 6.938232421875 0.5185546875 6.993896484375 0.4844970703125 Q 7.049560546875 0.450439453125 7.119140625 0.431396484375 Q 7.188720703125 0.412353515625 7.272216796875 0.412353515625" fill="#390c14" fill-rule="nonzero"></path></g><g></g><g clip-path="url(#SvgjsClipPath1001)"><path d=" M 0.5173689393651468 -6.91650294283628 L 7.206019732509853 -6.91650294283628 L 7.206019732509853 -0.2721478503084267 L 0.5173689393651468 -0.2721478503084267 Z" fill="#a5497e" transform="matrix(1,0,0,1,0,0)" fill-rule="nonzero" mask="url(#maskedMgText-1d8695a4-66af-4aba-941e-794ff297390b)"></path></g></g><defs><clipPath id="SvgjsClipPath1001"><path d=" M 0.5173689393651468 -6.938650793144706 h 6.688650793144706 v 6.688650793144706 h -6.688650793144706 Z"></path></clipPath><mask id="maskedMgText-1d8695a4-66af-4aba-941e-794ff297390b"><path d=" M 7.206019732509853 -3.594325396572353 C 7.206019732509853 -1.747305313791471 5.708714418718382 -0.25 3.8616943359375 -0.25 C 2.0146742531566173 -0.25 0.5173689393651468 -1.747305313791471 0.5173689393651468 -3.594325396572353 C 0.5173689393651468 -5.441345479353235 2.0146742531566173 -6.938650793144706 3.8616943359375 -6.938650793144706 C 5.708714418718382 -6.938650793144706 7.206019732509853 -5.441345479353235 7.206019732509853 -3.594325396572353 Z" fill="#ffffff" transform="matrix(1,0,0,1,0,0)" fill-rule="nonzero"></path><path d=" M 3.861690083407851 -1.9221626982861766 C 3.7978227581260877 -1.9221626982861766 3.7448419087446245 -1.9432098850267578 3.702747535263462 -1.9853042585079201 C 3.6606531617822995 -2.0273986319890827 3.6396059750417185 -2.080379481370546 3.6396059750417185 -2.1442468066523093 L 3.6396059750417185 -4.082039516905821 C 3.6396059750417185 -4.148809902427665 3.6606531617822995 -4.202516516869148 3.702747535263462 -4.243159360230271 C 3.7448419087446245 -4.283802203591393 3.7978227581260877 -4.304123625271954 3.861690083407851 -4.304123625271954 C 3.9284604689296954 -4.304123625271954 3.982167083371178 -4.283802203591393 4.0228099267323 -4.243159360230271 C 4.063452770093423 -4.202516516869148 4.083774191773984 -4.148809902427665 4.083774191773984 -4.082039516905821 L 4.083774191773984 -2.1442468066523093 C 4.083774191773984 -2.080379481370546 4.063452770093423 -2.0273986319890827 4.0228099267323 -1.9853042585079201 C 3.982167083371178 -1.9432098850267578 3.9284604689296954 -1.9221626982861766 3.861690083407851 -1.9221626982861766 M 3.861690083407851 -4.691682167322657 C 3.783307456925687 -4.691682167322657 3.7158113063438227 -4.719987004663438 3.6592016316622598 -4.776596679345001 C 3.6025919569806963 -4.833206354026565 3.574287119639915 -4.900702504608429 3.574287119639915 -4.979085131090593 C 3.574287119639915 -5.057467757572757 3.6025919569806963 -5.124963908154621 3.6592016316622598 -5.181573582836185 C 3.7158113063438227 -5.238183257517749 3.783307456925687 -5.26648809485853 3.861690083407851 -5.26648809485853 C 3.940072709890016 -5.26648809485853 4.0075688604718795 -5.238183257517749 4.064178535153443 -5.181573582836185 C 4.120788209835006 -5.124963908154621 4.149093047175787 -5.057467757572757 4.149093047175787 -4.979085131090593 C 4.149093047175787 -4.900702504608429 4.120788209835006 -4.833206354026565 4.064178535153443 -4.776596679345001 C 4.0075688604718795 -4.719987004663438 3.940072709890016 -4.691682167322657 3.861690083407851 -4.691682167322657" fill="NA" transform="matrix(1,0,0,1,0,0)" fill-rule="nonzero"></path></mask></defs></svg>