<?xml version="1.0" standalone="no"?>
<!DOCTYPE svg PUBLIC "-//W3C//DTD SVG 20010904//EN"
 "http://www.w3.org/TR/2001/REC-SVG-20010904/DTD/svg10.dtd">
<svg version="1.0" xmlns="http://www.w3.org/2000/svg"
 width="300.000000pt" height="300.000000pt" viewBox="0 0 300.000000 300.000000"
 preserveAspectRatio="xMidYMid meet">
<metadata>
Created by potrace 1.10, written by Peter Selinger 2001-2011
</metadata>
<g transform="translate(0.000000,300.000000) scale(0.100000,-0.100000)"
fill="#000000" stroke="none">
<path d="M2255 2371 c-11 -5 -127 -6 -257 -3 -210 4 -238 3 -238 -10 0 -13 23
-17 143 -20 130 -4 150 -8 229 -37 48 -18 112 -50 144 -72 31 -22 59 -38 62
-34 9 9 -18 138 -34 163 -16 24 -19 25 -49 13z m25 -77 c0 -18 -11 -18 -36 1
-16 12 -17 16 -4 24 17 11 40 -3 40 -25z"/>
<path d="M660 2360 c-58 -4 -131 -8 -162 -9 l-58 -1 0 -94 c0 -77 3 -98 19
-117 l19 -23 73 19 c66 17 117 19 457 21 l382 3 44 35 c47 39 169 106 192 106
18 0 19 44 1 59 -10 8 -29 8 -71 0 -42 -9 -82 -9 -156 0 -107 12 -565 12 -740
1z m798 -46 c28 -3 52 -9 52 -12 -1 -4 -32 -28 -70 -54 l-70 -48 -317 0 c-180
0 -357 -5 -408 -12 -49 -6 -106 -12 -125 -12 l-35 -1 -3 62 c-4 75 -16 69 183
82 140 9 693 6 793 -5z"/>
<path d="M1775 2299 c-146 -21 -276 -88 -385 -198 -118 -120 -182 -250 -200
-409 -19 -169 34 -372 124 -480 15 -16 26 -32 26 -35 0 -3 -123 -122 -274
-266 -151 -144 -278 -270 -281 -282 -14 -45 31 -99 84 -99 9 0 139 123 290
274 l272 274 55 -38 c68 -48 178 -94 262 -111 94 -18 260 -7 349 24 231 79
407 273 458 503 27 118 17 284 -22 390 -93 247 -302 418 -556 453 -88 12 -116
12 -202 0z m285 -60 c109 -29 193 -80 285 -173 137 -137 190 -279 182 -481 -7
-181 -63 -312 -188 -435 -122 -121 -254 -179 -425 -188 -156 -8 -311 37 -423
122 -64 48 -61 50 -351 -239 -146 -146 -273 -265 -283 -265 -25 0 -33 28 -16
55 8 13 120 123 249 245 129 122 245 234 257 248 30 36 29 58 -7 112 -32 46
-47 78 -82 165 -16 39 -22 81 -25 185 -5 129 -4 139 25 222 38 112 82 185 158
262 169 168 402 228 644 165z"/>
<path d="M1710 2206 c-317 -88 -517 -416 -444 -726 27 -116 77 -204 168 -295
92 -92 166 -136 282 -165 296 -76 601 84 715 375 41 104 51 247 24 358 -51
212 -231 397 -441 452 -70 18 -239 19 -304 1z m293 -41 c179 -47 327 -179 393
-351 21 -54 28 -92 31 -174 9 -182 -38 -301 -167 -431 -145 -146 -336 -200
-534 -149 -105 27 -189 73 -262 145 -178 176 -222 436 -112 663 64 132 216
256 364 297 67 18 217 18 287 0z"/>
<path d="M1647 2053 l-97 -4 -58 -57 c-55 -55 -119 -148 -109 -159 3 -2 115 0
249 7 134 6 335 10 448 8 l205 -3 3 43 c3 40 -1 46 -52 100 l-54 57 -84 6
c-83 7 -264 8 -451 2z m523 -60 c46 -29 89 -87 75 -101 -4 -4 -165 -7 -358 -8
-194 -1 -369 -4 -389 -9 -54 -10 -50 14 11 78 l50 52 108 6 c59 4 191 5 293 3
148 -4 189 -8 210 -21z"/>
<path d="M2080 1705 c0 -8 9 -15 20 -15 18 0 20 -7 20 -59 0 -58 -1 -60 -27
-63 -54 -6 -27 -23 40 -26 53 -2 68 0 64 10 -2 7 -14 13 -26 12 -20 -1 -21 4
-21 78 l0 78 -35 0 c-24 0 -35 -5 -35 -15z"/>
<path d="M1375 1700 c-4 -6 -2 -16 3 -23 11 -13 10 -102 -1 -113 -15 -16 -5
-24 28 -24 35 0 47 16 20 26 -10 4 -15 19 -14 48 l1 41 16 -37 c20 -46 39 -48
53 -8 6 17 15 30 20 30 13 0 -2 -64 -18 -73 -25 -15 -13 -27 27 -27 22 0 40 5
40 10 0 6 -4 10 -10 10 -15 0 -13 117 3 123 9 4 8 8 -3 16 -27 19 -41 11 -62
-36 l-21 -48 -20 48 c-19 46 -46 62 -62 37z"/>
<path d="M1930 1686 c0 -16 -6 -26 -15 -26 -8 0 -15 -4 -15 -9 0 -5 7 -11 15
-15 10 -3 15 -19 15 -45 0 -31 5 -43 21 -51 22 -12 65 -6 86 12 22 18 4 27
-32 15 -19 -6 -37 -8 -39 -6 -2 2 -6 20 -8 39 -3 34 -2 35 31 35 19 0 36 6 38
13 3 8 -7 12 -30 12 -29 0 -36 4 -39 22 -5 32 -28 35 -28 4z"/>
<path d="M1588 1663 c-10 -2 -18 -11 -18 -19 0 -11 9 -13 40 -8 27 4 40 3 40
-5 0 -6 -13 -11 -30 -11 -40 0 -74 -33 -61 -59 14 -26 28 -29 89 -23 50 4 64
14 42 27 -5 3 -10 21 -10 40 0 49 -37 73 -92 58z m62 -83 c0 -12 -45 -24 -60
-15 -5 3 -8 11 -5 16 8 12 65 12 65 -1z"/>
<path d="M1758 1663 c-37 -4 -48 -15 -28 -28 6 -3 10 -19 10 -35 0 -16 -4 -32
-10 -35 -21 -13 -9 -25 25 -25 34 0 48 16 22 26 -17 6 -14 56 5 68 25 15 48 0
48 -33 0 -16 -4 -33 -10 -36 -20 -12 -9 -25 20 -25 29 0 40 13 20 25 -5 3 -10
24 -10 45 0 37 -21 64 -47 58 -4 -1 -25 -3 -45 -5z"/>
<path d="M2262 1658 c-45 -22 -41 -98 6 -117 34 -14 93 -3 100 18 4 11 -4 12
-32 7 -40 -8 -76 0 -76 15 0 5 25 9 55 9 48 0 55 3 55 19 0 22 -45 61 -69 60
-9 0 -26 -5 -39 -11z m62 -24 c29 -11 16 -24 -24 -24 -38 0 -54 13 -27 23 18
8 33 8 51 1z"/>
<path d="M2160 1359 c-91 -3 -208 -12 -260 -18 -57 -8 -174 -11 -293 -9 -108
2 -197 0 -197 -5 0 -19 150 -157 197 -181 l52 -26 214 4 c209 3 215 4 258 29
67 40 121 90 164 151 21 31 36 57 34 59 -2 1 -78 -1 -169 -4z m80 -52 c0 -17
-75 -88 -121 -116 -33 -19 -55 -22 -239 -26 -225 -6 -246 -2 -329 66 -73 58
-71 60 127 59 99 0 221 6 277 14 136 18 285 20 285 3z"/>
<path d="M540 2022 c-75 -76 7 -192 101 -142 25 14 26 45 2 35 -61 -26 -103
-8 -103 44 0 52 58 80 82 41 19 -30 38 -25 38 10 0 19 -5 30 -14 30 -7 0 -27
3 -44 6 -26 5 -36 1 -62 -24z"/>
<path d="M700 1985 c0 -12 9 -15 36 -13 20 2 39 -2 41 -8 2 -6 -9 -11 -27 -11
-18 0 -40 -8 -52 -21 -21 -21 -21 -22 -4 -41 14 -16 30 -20 77 -19 43 1 59 5
59 14 0 8 -4 14 -10 14 -5 0 -10 17 -10 38 0 49 -14 62 -67 62 -32 0 -43 -4
-43 -15z m78 -67 c-5 -15 -68 -24 -68 -9 0 12 18 19 48 20 15 1 22 -4 20 -11z"/>
<path d="M883 1993 c-7 -2 -13 -15 -13 -29 0 -18 7 -25 28 -30 52 -11 62 -15
62 -25 0 -12 -57 -12 -65 1 -12 20 -36 11 -33 -12 2 -18 11 -23 45 -26 50 -4
83 11 83 39 0 20 -21 32 -75 44 -27 6 -28 8 -11 17 13 7 26 7 43 -1 32 -15 33
-14 33 9 0 17 -6 20 -42 19 -24 0 -49 -3 -55 -6z"/>
<path d="M1046 1985 c-20 -21 -10 -44 23 -51 51 -11 61 -15 61 -25 0 -5 -16
-9 -35 -9 -19 0 -35 5 -35 10 0 6 -7 10 -16 10 -10 0 -14 -7 -12 -22 2 -19 10
-23 49 -26 33 -2 51 1 63 13 33 33 16 54 -59 70 -27 6 -28 8 -11 17 13 7 26 7
43 -1 32 -15 33 -14 33 9 0 17 -7 20 -44 20 -27 0 -51 -6 -60 -15z"/>
<path d="M786 1693 c-257 -3 -342 -6 -348 -16 -4 -6 -8 -54 -8 -105 0 -74 3
-94 15 -98 9 -4 172 -2 363 2 300 8 347 11 344 24 -2 8 -4 57 -5 108 0 60 -4
91 -11 90 -6 -2 -164 -4 -350 -5z m318 -59 c11 -27 6 -91 -6 -102 -8 -6 -130
-11 -318 -14 l-305 -3 -3 54 c-2 29 -1 60 2 67 4 11 62 14 315 14 272 0 310
-2 315 -16z"/>
<path d="M900 1344 c-49 -11 -112 -13 -261 -9 l-197 6 -11 -64 c-16 -93 -14
-124 10 -148 21 -21 28 -22 157 -15 74 3 188 6 254 6 148 0 158 7 158 105 0
63 -20 136 -37 134 -4 -1 -37 -8 -73 -15z m55 -110 l0 -69 -235 -7 c-216 -7
-236 -6 -248 10 -14 19 -8 99 9 117 6 6 79 9 187 8 97 -2 197 1 222 6 25 5 50
7 55 6 6 -1 10 -33 10 -71z"/>
<path d="M1217 1283 c-10 -16 -18 -113 -12 -132 8 -27 14 -26 49 5 27 24 28
28 16 48 -8 11 -22 36 -31 54 -10 18 -19 29 -22 25z"/>
<path d="M1415 990 c-11 -4 -69 -59 -130 -120 -107 -109 -109 -112 -75 -107
19 3 136 13 260 23 210 16 230 16 300 1 94 -20 595 -33 606 -16 9 15 9 194 0
208 -13 20 -98 12 -148 -14 -151 -81 -356 -107 -518 -66 -47 11 -121 39 -165
61 -83 41 -96 45 -130 30z m108 -64 c23 -13 78 -37 122 -53 53 -19 72 -29 55
-30 -256 -18 -382 -24 -387 -19 -4 4 20 33 52 66 68 69 92 74 158 36z m812
-51 l0 -70 -60 1 c-426 5 -451 6 -475 19 -23 13 -16 14 75 15 126 0 208 18
326 69 128 55 134 54 134 -34z"/>
<path d="M997 953 c-4 -3 -127 -10 -274 -15 -146 -4 -267 -9 -269 -11 -11 -10
-14 -139 -5 -173 14 -51 29 -56 113 -38 35 7 104 14 153 14 l90 1 122 114 c98
92 118 115 100 115 -13 0 -27 -3 -30 -7z m-87 -62 c0 -15 -108 -110 -131 -115
-21 -4 -68 -8 -249 -19 -33 -2 -36 0 -44 36 -6 23 -6 48 0 65 9 25 14 27 84
33 124 9 340 10 340 0z"/>
</g>
</svg>
